<svg xmlns="http://www.w3.org/2000/svg" width="20" height="20" viewBox="0 0 20 20">
  <path fill="#8ab5c5" d="M12.9762729,10.3751854 L9.35392981,13.9965398 C9.23826001,14.1122096 9.08601087,14.1705388 8.93475037,14.1705388 C8.78348987,14.1705388 8.63222936,14.1122096 8.51557093,13.9965398 C8.28423134,13.7661888 8.28423134,13.3895205 8.51557093,13.1591696 L11.7187346,9.95600593 L8.6045477,6.84083045 C8.37419674,6.60949086 8.37419674,6.23381117 8.60553633,6.00247158 C8.83786456,5.77212061 9.21255561,5.77113198 9.44488384,6.00346021 L12.9772615,9.5368265 C13.2076125,9.76915472 13.2076125,10.1438458 12.9762729,10.3751854 Z M9.99950568,1 C5.03756797,1 1,5.03756797 1,10.0004943 C1,14.962432 5.03756797,19 9.99950568,19 C14.962432,19 19,14.962432 19,10.0004943 C19,5.03756797 14.962432,1 9.99950568,1 L9.99950568,1 Z" transform="rotate(-180 10 10)"/>
</svg>
