<svg xmlns="http://www.w3.org/2000/svg" width="20" height="20" viewBox="0 0 20 20">
  <path fill-rule="evenodd" d="M8.59842154,6.60155388 C8.59888579,5.7520591 9.28644383,5.05994736 10.1309192,5.05994736 C10.9753946,5.06041437 11.6624884,5.75252611 11.6624884,6.6024879 L11.6620241,8.1744502 L8.59842154,8.1744502 L8.59842154,6.60155388 Z M14.4015785,8.1744502 L12.2195915,8.1744502 L12.2200557,6.6024879 C12.2200557,5.44336418 11.2827298,4.50046701 10.1309192,4.5 C8.97910864,4.5 8.04131848,5.44289717 8.04131848,6.60155388 L8.04131848,8.1744502 L5.59888579,8.1744502 C5.26880223,8.1744502 5,8.44391611 5,8.77596162 L5,13.8313662 C5,13.9901503 5.06406685,14.1451983 5.17548747,14.2568141 L6.2367688,15.3248705 C6.34958217,15.4378874 6.49953575,15.5 6.65923863,15.5 L13.3407614,15.5 C13.4976787,15.5 13.6518106,15.4360194 13.7641597,15.3239365 L14.8249768,14.2568141 C14.9363974,14.1447313 15,13.9896833 15,13.8313662 L15,8.77596162 C15,8.44391611 14.731662,8.1744502 14.4015785,8.1744502 L14.4015785,8.1744502 Z"/>
</svg>
