<svg width="119" height="249" viewBox="0 0 119 249" version="1.1" xmlns="http://www.w3.org/2000/svg" xmlns:xlink="http://www.w3.org/1999/xlink" xml:space="preserve" xmlns:serif="http://www.serif.com/" style="height:auto;fill-rule:evenodd;clip-rule:evenodd;stroke-linejoin:round;stroke-miterlimit:2;">
    <g transform="matrix(1,0,0,1,-2456.69,-10759.8)">
        <g id="Bauarbeiter-03" serif:id="Bauarbeiter 03" transform="matrix(1.47638,0,0,3.10039,2456.69,10759.8)">
            <rect x="0" y="0" width="80" height="80" style="" fill="none"></rect>
            <g transform="matrix(2.82222,0,0,1.34392,25.6315,43.6861)">
                <path d="M0,6.621C-0.066,6.621 -0.134,6.609 -0.199,6.587C-0.512,6.476 -0.676,6.134 -0.566,5.821L1.316,0.475C1.427,0.161 1.773,0 2.082,0.107C2.395,0.218 2.559,0.56 2.449,0.873L0.566,6.22C0.479,6.467 0.247,6.621 0,6.621" style="fill-rule: nonzero;" fill="#BBCF31"></path>
            </g>
            <g transform="matrix(2.82222,0,0,1.34392,46.2718,43.6806)">
                <path d="M0,3.797C-0.414,3.797 -0.848,3.737 -1.278,3.581C-2.372,3.185 -3.185,2.277 -3.693,0.884C-3.808,0.572 -3.646,0.228 -3.336,0.114C-3.023,0 -2.68,0.161 -2.566,0.472C-2.186,1.514 -1.617,2.18 -0.875,2.451C0.44,2.931 1.952,2.081 1.967,2.071C2.257,1.906 2.62,2.006 2.786,2.292C2.951,2.578 2.854,2.944 2.567,3.11C2.506,3.146 1.362,3.797 0,3.797" style="fill-rule: nonzero;" fill="#BBCF31"></path>
            </g>
            <g transform="matrix(2.82222,0,0,1.34392,42.1404,52.1919)">
                <path d="M0,7.871C-0.331,7.871 -0.6,7.602 -0.6,7.271L-0.6,0.6C-0.6,0.268 -0.331,0 0,0C0.331,0 0.6,0.268 0.6,0.6L0.6,7.271C0.6,7.602 0.331,7.871 0,7.871" style="fill-rule: nonzero;" fill="#008AC5"></path>
            </g>
            <g transform="matrix(2.82222,0,0,1.34392,30.6723,52.1919)">
                <path d="M0,7.871C-0.331,7.871 -0.6,7.602 -0.6,7.271L-0.6,0.6C-0.6,0.268 -0.331,0 0,0C0.331,0 0.6,0.268 0.6,0.6L0.6,7.271C0.6,7.602 0.331,7.871 0,7.871" style="fill-rule: nonzero;" fill="#008AC5"></path>
            </g>
            <g transform="matrix(2.82222,0,0,1.34392,42.1045,50.523)">
                <path d="M0,-3.688C0,-4.703 -0.906,-5.525 -2.025,-5.525C-3.144,-5.525 -4.051,-4.703 -4.051,-3.688L-4.051,1.837L0.013,1.837L0,-3.688Z" style="fill-rule: nonzero;" fill="#EB5A23"></path>
            </g>
            <g transform="matrix(2.82222,0,0,1.34392,43.7967,50.523)">
                <path d="M0,-3.688L0.011,-3.688L0,-3.688ZM-4.051,1.238L-1.188,1.238L-1.199,-3.687L-1.199,-3.688C-1.199,-4.37 -1.839,-4.925 -2.625,-4.925C-3.411,-4.925 -4.051,-4.37 -4.051,-3.688L-4.051,1.238ZM-0.587,2.437L-4.65,2.437C-4.981,2.437 -5.25,2.168 -5.25,1.837L-5.25,-3.688C-5.25,-5.032 -4.072,-6.125 -2.625,-6.125C-1.178,-6.125 0,-5.033 0,-3.689L0.013,1.836C0.014,1.996 -0.05,2.148 -0.162,2.261C-0.274,2.374 -0.428,2.437 -0.587,2.437" style="fill-rule: nonzero;" fill="#EB5A23"></path>
            </g>
            <g transform="matrix(0,-1.34392,-2.82222,0,36.35,34.6985)">
                <path d="M-2.521,-2.521C-3.914,-2.521 -5.042,-1.393 -5.042,0C-5.042,1.392 -3.914,2.521 -2.521,2.521C-1.128,2.521 0,1.392 0,0C0,-1.393 -1.128,-2.521 -2.521,-2.521" style="fill-rule: nonzero;" fill="#F7E2DF"></path>
            </g>
            <g transform="matrix(0,-1.34392,-2.82222,0,36.35,34.6985)">
                <path d="M-2.521,-2.521C-3.914,-2.521 -5.042,-1.393 -5.042,0C-5.042,1.392 -3.914,2.521 -2.521,2.521C-1.128,2.521 0,1.392 0,0C0,-1.393 -1.128,-2.521 -2.521,-2.521" style="fill-rule: nonzero;" fill="#F9DCD7"></path>
            </g>
            <g transform="matrix(2.82222,0,0,1.34392,34.0321,38.0859)">
                <path d="M0,0C0,-1.31 0.48,-2.386 1.074,-2.508C0.994,-2.516 0.903,-2.521 0.821,-2.521C-0.571,-2.521 -1.699,-1.393 -1.699,0C-1.699,1.393 -0.571,2.521 0.821,2.521C0.903,2.521 0.979,2.518 1.059,2.51C0.464,2.388 0,1.311 0,0" style="fill-rule: nonzero;" fill="#F4C4BF"></path>
            </g>
            <g transform="matrix(-2.82222,0,0,1.34392,458.127,-637.347)">
                <rect x="146.736" y="510.739" width="5.367" height="0.888" style="" fill="#C9C6CD"></rect>
            </g>
            <g transform="matrix(-2.82222,0,0,1.34392,458.127,-633.076)">
                <rect x="146.736" y="509.15" width="5.367" height="0.888" style="" fill="#C9C6CD"></rect>
            </g>
            <g transform="matrix(2.82222,0,0,1.34392,36.35,42.3005)">
                <path d="M0,8.653C-0.138,8.653 -0.25,8.541 -0.25,8.403L-0.25,0.25C-0.25,0.112 -0.138,0 0,0C0.138,0 0.25,0.112 0.25,0.25L0.25,8.403C0.25,8.541 0.138,8.653 0,8.653" style="fill-rule: nonzero;" fill="#F17D38"></path>
            </g>
            <g transform="matrix(2.82222,0,0,1.34392,42.7302,34.1381)">
                <path d="M0,2.128C0,0.952 -1.013,0 -2.261,0C-3.509,0 -4.521,0.952 -4.521,2.128L0,2.128Z" style="fill-rule: nonzero;" fill="#EB5A23"></path>
            </g>
            <g transform="matrix(2.82222,0,0,1.34392,32.0394,34.9435)">
                <path d="M0,0.929L3.055,0.929C2.801,0.383 2.212,-0 1.527,-0C0.843,-0 0.254,0.383 0,0.929M3.788,2.128L-0.733,2.128C-1.064,2.128 -1.333,1.86 -1.333,1.529C-1.333,0.025 -0.05,-1.199 1.527,-1.199C3.104,-1.199 4.388,0.025 4.388,1.529C4.388,1.86 4.119,2.128 3.788,2.128" style="fill-rule: nonzero;" fill="#EB5A23"></path>
            </g>
            <g transform="matrix(2.82222,0,0,1.34392,44.1552,36.1924)">
                <path d="M0,1.199L-5.532,1.199C-5.863,1.199 -6.132,0.93 -6.132,0.599C-6.132,0.268 -5.863,0 -5.532,0L0,0C0.331,0 0.6,0.268 0.6,0.599C0.6,0.93 0.331,1.199 0,1.199" style="fill-rule: nonzero;" fill="#EB5A23"></path>
            </g>
            <g transform="matrix(2.82222,0,0,1.34392,54.3691,17.1487)">
                <path d="M0,34.007C-0.331,34.007 -0.6,33.738 -0.6,33.407L-0.6,0.6C-0.6,0.269 -0.331,0 0,0C0.331,0 0.6,0.269 0.6,0.6L0.6,33.407C0.6,33.738 0.331,34.007 0,34.007" style="fill-rule: nonzero;" fill="#E41E25"></path>
            </g>
            <g transform="matrix(-2.82222,0,0,1.34392,494.003,-689.224)">
                <rect x="155.176" y="529.059" width="1.199" height="2.849" style="" fill="#FFFFFF"></rect>
            </g>
            <g transform="matrix(-2.82222,0,0,1.34392,494.003,-673.193)">
                <rect x="155.176" y="523.095" width="1.199" height="2.849" style="" fill="#FFFFFF"></rect>
            </g>
            <g transform="matrix(-2.82222,0,0,1.34392,494.003,-657.163)">
                <rect x="155.176" y="517.131" width="1.199" height="2.849" style="" fill="#FFFFFF"></rect>
            </g>
            <g transform="matrix(-2.82222,0,0,1.34392,494.003,-641.133)">
                <rect x="155.176" y="511.167" width="1.199" height="2.849" style="" fill="#FFFFFF"></rect>
            </g>
            <g transform="matrix(-2.82222,0,0,1.34392,494.003,-625.105)">
                <rect x="155.176" y="505.204" width="1.199" height="2.849" style="" fill="#FFFFFF"></rect>
            </g>
        </g>
    </g>
</svg>