<svg width="100%" height="100%" viewBox="0 0 591 591" version="1.1" xmlns="http://www.w3.org/2000/svg" xmlns:xlink="http://www.w3.org/1999/xlink" xml:space="preserve" xmlns:serif="http://www.serif.com/" style="fill-rule:evenodd;clip-rule:evenodd;stroke-linejoin:round;stroke-miterlimit:2;">
    <rect id="ArtBoard1" x="0" y="0" width="590.551" height="590.551" style="" fill="none"></rect>
    <g id="ArtBoard11" serif:id="ArtBoard1">
        <g transform="matrix(4.16667,0,0,4.16667,167.371,248.555)">
            <path d="M0,-11.599L-10.735,-9.577C-11.054,-9.517 -11.278,-9.236 -11.278,-8.922C-11.278,-8.88 -11.275,-8.838 -11.266,-8.798C-11.206,-8.476 -10.926,-8.253 -10.611,-8.253C-10.57,-8.253 -10.528,-8.256 -10.487,-8.264L-3.022,-9.669L-4.019,-0.673C-4.059,-0.307 -3.796,0.023 -3.428,0.065C-3.404,0.068 -3.379,0.068 -3.355,0.068C-3.019,0.068 -2.729,-0.184 -2.692,-0.526L-1.65,-9.929L0.248,-10.286C0.569,-10.347 0.793,-10.626 0.793,-10.942C0.793,-10.982 0.788,-11.025 0.781,-11.066C0.712,-11.429 0.363,-11.667 0,-11.599" style="fill-rule: nonzero;" fill="#284528"></path>
        </g>
        <g transform="matrix(4.16667,0,0,4.16667,206.723,244.508)">
            <path d="M0,-12.353C-0.37,-12.392 -0.695,-12.124 -0.732,-11.756L-1.089,-8.22L-6.515,-7.181L-6.201,-10.285C-6.163,-10.653 -6.431,-10.981 -6.798,-11.017C-7.168,-11.053 -7.492,-10.787 -7.53,-10.421L-8.512,-0.698C-8.55,-0.33 -8.282,-0.003 -7.916,0.034C-7.894,0.037 -7.87,0.039 -7.847,0.039C-7.509,0.039 -7.218,-0.219 -7.184,-0.562L-6.655,-5.795L-1.231,-6.834L-1.715,-2.034C-1.752,-1.666 -1.484,-1.337 -1.117,-1.301C-1.095,-1.299 -1.072,-1.297 -1.051,-1.297C-0.71,-1.297 -0.421,-1.555 -0.386,-1.898L0.597,-11.621C0.633,-11.988 0.366,-12.317 0,-12.353" style="fill-rule: nonzero;" fill="#284528"></path>
        </g>
        <g transform="matrix(4.16667,0,0,4.16667,229.703,188.031)">
            <path d="M0,2.741C0.03,2.745 0.059,2.747 0.088,2.747C0.418,2.747 0.705,2.503 0.749,2.168L0.931,0.791C0.98,0.427 0.722,0.091 0.356,0.042C-0.007,-0.006 -0.344,0.251 -0.393,0.617L-0.575,1.992C-0.624,2.356 -0.366,2.693 0,2.741" style="fill-rule: nonzero;" fill="#284528"></path>
        </g>
        <g transform="matrix(4.16667,0,0,4.16667,239.7,186.243)">
            <path d="M0,2.676C0.03,2.68 0.062,2.682 0.092,2.682C0.421,2.682 0.706,2.44 0.752,2.105L0.934,0.797C0.986,0.432 0.731,0.095 0.366,0.045C-0.001,-0.006 -0.337,0.248 -0.389,0.614L-0.571,1.922C-0.621,2.287 -0.365,2.624 0,2.676" style="fill-rule: nonzero;" fill="#284528"></path>
        </g>
        <g transform="matrix(4.16667,0,0,4.16667,251.457,234.473)">
            <path d="M0,-11.981C-0.366,-12.016 -0.692,-11.743 -0.725,-11.376C-0.823,-10.305 -1.231,-6.567 -1.473,-4.333L-1.52,-3.911C-1.61,-3.093 -1.732,-1.971 -4.694,-1.43C-6.299,-1.136 -6.891,-1.417 -7.102,-1.611C-7.313,-1.806 -7.391,-2.152 -7.339,-2.663C-7.146,-4.555 -6.636,-9.831 -6.632,-9.884C-6.596,-10.252 -6.865,-10.577 -7.233,-10.613C-7.604,-10.648 -7.926,-10.38 -7.96,-10.013C-7.966,-9.959 -8.475,-4.686 -8.668,-2.799C-8.765,-1.853 -8.543,-1.124 -8.008,-0.63C-7.528,-0.186 -6.839,0.035 -5.92,0.035C-5.485,0.035 -4.996,-0.016 -4.454,-0.115C-0.99,-0.748 -0.359,-2.244 -0.193,-3.767L-0.147,-4.189C0.097,-6.427 0.507,-10.172 0.605,-11.255C0.638,-11.622 0.367,-11.948 0,-11.981" style="fill-rule: nonzero;" fill="#284528"></path>
        </g>
        <g transform="matrix(4.16667,0,0,4.16667,455.333,187.443)">
            <path d="M0,-7.892C-0.025,-7.239 -0.189,-6.215 -0.267,-5.87C-0.355,-5.474 -1.457,-3.837 -4.862,-3.043L-4.438,-7.833C-2.657,-8.209 -0.571,-8.624 -0.084,-8.213C-0.058,-8.19 0.01,-8.134 0,-7.892M1.038,-5.578C1.128,-5.984 1.306,-7.088 1.336,-7.842C1.363,-8.581 1.048,-9.004 0.777,-9.234C-0.236,-10.087 -2.234,-9.665 -4.998,-9.079C-5.348,-9.006 -5.708,-8.931 -6.071,-8.856C-6.433,-8.781 -6.666,-8.428 -6.591,-8.068C-6.518,-7.706 -6.165,-7.474 -5.805,-7.548L-6.264,-2.367C-6.277,-2.309 -6.28,-2.249 -6.279,-2.187L-6.603,1.468C-6.604,1.488 -6.606,1.508 -6.606,1.528C-6.606,1.87 -6.344,2.162 -5.996,2.193C-5.976,2.194 -5.957,2.195 -5.937,2.195C-5.594,2.195 -5.303,1.933 -5.273,1.586L-4.986,-1.648C-3.947,-1.858 -3.075,-2.144 -2.345,-2.466C-2.166,-1.165 -1.536,0.251 -0.369,0.979C-0.259,1.048 -0.137,1.082 -0.016,1.082C0.208,1.082 0.425,0.969 0.552,0.766C0.746,0.453 0.65,0.041 0.337,-0.153C-0.562,-0.714 -1.04,-2.072 -1.061,-3.154C0.353,-4.075 0.928,-5.086 1.038,-5.578" style="fill-rule: nonzero;" fill="#284528"></path>
        </g>
        <g transform="matrix(4.16667,0,0,4.16667,287.079,218.937)">
            <path d="M0,-7.892C-0.026,-7.239 -0.189,-6.213 -0.267,-5.87C-0.356,-5.472 -1.457,-3.835 -4.864,-3.041L-4.44,-7.833C-2.657,-8.208 -0.572,-8.623 -0.085,-8.212C-0.059,-8.19 0.009,-8.133 0,-7.892M0.777,-9.234C-0.236,-10.087 -2.235,-9.665 -4.999,-9.079C-5.351,-9.004 -5.708,-8.93 -6.073,-8.855C-6.434,-8.781 -6.666,-8.428 -6.593,-8.066C-6.518,-7.706 -6.166,-7.474 -5.806,-7.548L-6.264,-2.367C-6.277,-2.308 -6.282,-2.247 -6.28,-2.185L-6.603,1.468C-6.606,1.489 -6.606,1.508 -6.606,1.528C-6.606,1.87 -6.344,2.162 -5.998,2.193C-5.976,2.194 -5.957,2.195 -5.937,2.195C-5.596,2.195 -5.305,1.933 -5.273,1.586L-4.988,-1.648C-3.949,-1.858 -3.077,-2.144 -2.345,-2.465C-2.167,-1.165 -1.536,0.253 -0.369,0.981C-0.259,1.048 -0.138,1.082 -0.017,1.082C0.206,1.082 0.424,0.969 0.55,0.767C0.746,0.453 0.65,0.043 0.336,-0.153C-0.562,-0.714 -1.042,-2.07 -1.062,-3.154C0.353,-4.075 0.928,-5.086 1.038,-5.578C1.128,-5.984 1.306,-7.088 1.334,-7.842C1.362,-8.579 1.048,-9.004 0.777,-9.234" style="fill-rule: nonzero;" fill="#284528"></path>
        </g>
        <g transform="matrix(4.16667,0,0,4.16667,305.937,220.146)">
            <path d="M0,-11.018C-0.369,-11.054 -0.695,-10.787 -0.732,-10.421L-1.715,-0.698C-1.752,-0.331 -1.484,-0.002 -1.117,0.034C-1.095,0.036 -1.072,0.036 -1.051,0.036C-0.71,0.036 -0.421,-0.22 -0.386,-0.563L0.597,-10.286C0.634,-10.653 0.367,-10.982 0,-11.018" style="fill-rule: nonzero;" fill="#284528"></path>
        </g>
        <g transform="matrix(4.16667,0,0,4.16667,350.378,217.368)">
            <path d="M0,-12.517C-0.367,-12.553 -0.693,-12.286 -0.732,-11.919L-1.651,-2.81C-2.382,-2.888 -3.059,-3.371 -3.533,-3.809C-5.231,-5.376 -6.424,-8.194 -6.248,-10.221C-6.247,-10.246 -6.25,-10.267 -6.25,-10.292C-6.215,-10.657 -6.482,-10.982 -6.847,-11.02C-7.214,-11.054 -7.541,-10.789 -7.579,-10.422L-8.561,-0.699C-8.599,-0.333 -8.331,-0.004 -7.965,0.033C-7.942,0.035 -7.919,0.036 -7.896,0.036C-7.558,0.036 -7.267,-0.22 -7.234,-0.565L-6.682,-6.012C-6.126,-4.801 -5.352,-3.67 -4.44,-2.827C-3.463,-1.925 -2.441,-1.46 -1.453,-1.461C-1.356,-1.461 -1.261,-1.465 -1.167,-1.476C-1.15,-1.471 -1.134,-1.467 -1.117,-1.464C-1.094,-1.463 -1.071,-1.461 -1.049,-1.461C-0.71,-1.461 -0.419,-1.718 -0.386,-2.062L0.598,-11.785C0.634,-12.151 0.367,-12.48 0,-12.517" style="fill-rule: nonzero;" fill="#284528"></path>
        </g>
        <g transform="matrix(4.16667,0,0,4.16667,388.955,205.64)">
            <path d="M0,-10.665C-0.327,-10.945 -0.947,-11.234 -2.052,-11.012C-2.479,-10.929 -2.935,-10.849 -3.371,-10.775C-3.953,-10.674 -4.502,-10.579 -4.894,-10.485C-6.158,-10.178 -6.872,-9.188 -7.017,-7.536C-7.161,-5.91 -7.654,-1.866 -7.658,-1.824C-7.659,-1.811 -7.661,-1.798 -7.661,-1.784C-7.669,-1.654 -7.715,-0.508 -6.959,0.15C-6.723,0.355 -6.341,0.569 -5.773,0.569C-5.617,0.569 -5.449,0.554 -5.264,0.518C-3.551,0.176 -2.094,-0.105 -2.077,-0.108C-2.003,-0.125 -0.233,-0.534 0.029,-2.935L0.357,-6.551C0.357,-6.557 0.356,-6.564 0.356,-6.571C0.357,-6.594 0.357,-6.616 0.356,-6.64C0.355,-6.663 0.355,-6.686 0.35,-6.709C0.349,-6.717 0.35,-6.722 0.349,-6.729C0.346,-6.742 0.34,-6.754 0.337,-6.768C0.331,-6.791 0.327,-6.814 0.318,-6.839C0.311,-6.856 0.303,-6.875 0.294,-6.894C0.284,-6.914 0.274,-6.934 0.262,-6.954C0.252,-6.972 0.239,-6.989 0.228,-7.005C0.213,-7.023 0.2,-7.041 0.186,-7.058C0.171,-7.072 0.157,-7.087 0.144,-7.098C0.127,-7.116 0.108,-7.132 0.089,-7.146C0.075,-7.156 0.059,-7.166 0.042,-7.176C0.023,-7.189 0.003,-7.201 -0.02,-7.212C-0.037,-7.219 -0.056,-7.227 -0.076,-7.234C-0.097,-7.243 -0.117,-7.25 -0.138,-7.255C-0.161,-7.261 -0.184,-7.266 -0.209,-7.27C-0.222,-7.271 -0.233,-7.274 -0.248,-7.276C-0.255,-7.277 -0.262,-7.276 -0.269,-7.276C-0.291,-7.277 -0.316,-7.276 -0.339,-7.274C-0.362,-7.274 -0.383,-7.273 -0.404,-7.271C-0.412,-7.27 -0.419,-7.271 -0.427,-7.27L-2.853,-6.833C-3.216,-6.768 -3.457,-6.421 -3.392,-6.058C-3.335,-5.734 -3.054,-5.507 -2.735,-5.507C-2.698,-5.507 -2.657,-5.512 -2.617,-5.519L-1.052,-5.799L-1.3,-3.068C-1.447,-1.725 -2.239,-1.448 -2.366,-1.412C-2.543,-1.377 -3.923,-1.111 -5.525,-0.792C-5.784,-0.742 -5.972,-0.762 -6.08,-0.856C-6.284,-1.032 -6.335,-1.484 -6.331,-1.689C-6.283,-2.071 -5.828,-5.822 -5.686,-7.42C-5.568,-8.766 -5.084,-9.064 -4.58,-9.186C-4.232,-9.27 -3.702,-9.362 -3.144,-9.457C-2.695,-9.535 -2.232,-9.614 -1.79,-9.702C-1.277,-9.805 -0.974,-9.74 -0.87,-9.652C-0.855,-9.638 -0.801,-9.591 -0.808,-9.417C-0.827,-9.006 -0.853,-8.826 -0.855,-8.819C-0.908,-8.456 -0.659,-8.116 -0.294,-8.06C0.071,-8.002 0.411,-8.254 0.467,-8.617C0.47,-8.642 0.503,-8.861 0.526,-9.354C0.55,-9.885 0.365,-10.351 0,-10.665" style="fill-rule: nonzero;" fill="#284528"></path>
        </g>
        <g transform="matrix(4.16667,0,0,4.16667,420.778,200.332)">
            <path d="M0,-11.478L-4.355,-10.675C-4.649,-10.622 -4.869,-10.381 -4.9,-10.086L-5.737,-1.814C-5.748,-1.703 -5.733,-1.591 -5.688,-1.489C-5.441,-0.899 -4.62,0.068 -3.139,0.068C-2.908,0.068 -2.66,0.043 -2.395,-0.009C-1.048,-0.277 0.131,-1.605 0.261,-1.757C0.501,-2.035 0.468,-2.455 0.19,-2.698C-0.089,-2.938 -0.51,-2.908 -0.751,-2.628C-1.023,-2.316 -1.894,-1.47 -2.656,-1.319C-3.731,-1.104 -4.219,-1.628 -4.388,-1.883L-4.028,-5.443L-1.447,-5.881C-1.082,-5.943 -0.837,-6.287 -0.899,-6.65C-0.961,-7.014 -1.304,-7.26 -1.67,-7.197L-3.888,-6.822L-3.621,-9.453L0.241,-10.164C0.604,-10.231 0.844,-10.579 0.777,-10.942C0.71,-11.305 0.359,-11.546 0,-11.478" style="fill-rule: nonzero;" fill="#284528"></path>
        </g>
        <g transform="matrix(4.16667,0,0,4.16667,217.301,261.502)">
            <path d="M0,20.59L1.29,5.223L6.861,-0.251C7.847,-1.2 4.4,-1.053 3.858,-0.5L1.628,1.62C1.591,1.653 1.692,0.849 1.732,0.27C1.77,-0.271 -1.345,-0.036 -1.602,0.871L-3.554,21.092C-3.619,21.79 -0.039,21.165 0,20.59" style="fill-rule: nonzero;" fill="#284528"></path>
        </g>
        <g transform="matrix(4.16667,0,0,4.16667,319.024,294.221)">
            <path d="M0,-6.586C0.091,-7.174 2.709,-10.99 5.175,-11.555C5.758,-11.601 3.482,2.824 3.193,4.156L3.201,4.169C2.866,5.231 2.444,5.728 1.503,6.175L-1.347,6.98C-0.82,-1.332 0,-6.586 0,-6.586M-1.623,8.519L-1.623,8.518C0.519,8.129 2.761,7.729 4.1,7.074C4.812,6.727 5.812,6.389 6.045,5.598C7.877,-0.568 9.337,-11.048 8.455,-12.784C8.194,-13.3 7.178,-13.281 6.737,-13.3C4.705,-13.381 2.567,-12.817 0.891,-11.651C0.67,-11.497 0.47,-11.331 0.282,-11.156C0.282,-12.663 0.605,-14.211 0.605,-15.826C0.605,-16.368 -2.247,-16.142 -2.362,-15.33C-3.167,-9.658 -5.106,7.07 -4.833,9.081C-4.74,9.782 -1.803,9.192 -1.623,8.519" style="fill-rule: nonzero;" fill="#284528"></path>
        </g>
        <g transform="matrix(4.16667,0,0,4.16667,374.243,259.528)">
            <path d="M0,5.426C0.308,1.544 0.542,-0.325 1.608,-2.742C1.981,-3.591 2.92,-5.591 3.193,-6.022C3.346,-6.267 6.603,-4.778 6.603,-4.778L5.417,5.838C4.496,7.131 3.665,8.405 2.562,9.586C1.986,10.205 1.409,10.826 0.793,11.406C0.594,11.594 0.347,11.771 0.098,11.95C-0.025,11.366 -0.035,10.759 -0.055,10.166C-0.111,8.579 -0.127,7.017 0,5.426M0.258,13.982C2.156,13.761 3.66,12.301 4.967,10.997C4.89,11.513 4.878,11.904 4.819,12.517C4.745,13.268 8.312,12.712 8.386,12.022L10.209,-7.999C10.273,-8.776 7.172,-8.25 7.057,-7.555C7.038,-7.438 6.919,-6.621 6.848,-6.313C6.042,-6.656 5.225,-7.054 4.381,-7.268C2.45,-7.754 0.64,-7.449 -0.239,-5.724C-2.463,-1.364 -3.195,1.395 -3.761,5.639C-4.018,7.56 -3.986,9.885 -3.656,11.806C-3.304,13.848 -1.63,14.202 0.258,13.982" style="fill-rule: nonzero;" fill="#284528"></path>
        </g>
        <g transform="matrix(4.16667,0,0,4.16667,432.868,208.675)">
            <path d="M0,23.036L1.137,11.056C1.157,11.015 1.172,10.974 1.179,10.931C1.53,8.931 2.581,6.833 3.993,5.369C4.658,4.68 5.437,4.109 6.254,3.613C6.385,3.534 6.532,3.462 6.685,3.389C6.014,9.097 5.163,16.453 4.813,22.17C4.767,22.918 8.482,22.222 8.558,21.357C9.12,15.064 9.955,8.089 10.294,1.87C10.335,1.423 9.518,1.116 7.38,1.505C5.318,1.89 3.067,2.988 1.607,4.389C1.669,2.961 1.849,0.668 1.892,-0.698C1.915,-1.383 -1.185,-0.929 -1.245,-0.079C-1.245,-0.079 -2.995,13.767 -3.698,23.637C-3.753,24.419 -0.18,23.804 0,23.036" style="fill-rule: nonzero;" fill="#284528"></path>
        </g>
        <g transform="matrix(4.16667,0,0,4.16667,492.057,208.574)">
            <path d="M0,20.34L1.151,8.208C1.519,6.236 2.555,4.181 3.946,2.74C4.611,2.051 5.391,1.481 6.207,0.985C6.349,0.899 6.514,0.819 6.681,0.739C6.012,6.441 5.292,13.724 4.941,19.426C4.894,20.174 8.61,19.478 8.687,18.614C9.25,12.32 9.955,5.393 10.294,-0.826C10.322,-1.375 9.002,-1.383 8.113,-1.301C5.944,-1.129 3.276,0.181 1.675,1.655C1.69,1.355 1.728,0.74 1.724,0.465C1.713,-0.168 -1.284,0.24 -1.378,0.945C-1.378,0.945 -2.995,11.071 -3.698,20.941C-3.753,21.723 -0.18,21.108 0,20.34" style="fill-rule: nonzero;" fill="#284528"></path>
        </g>
        <g transform="matrix(4.16667,0,0,4.16667,172.719,347.375)">
            <path d="M0,-16.465C0.883,-17.621 2.32,-17.897 3.748,-18.052C3.748,-18.052 3.474,-11.908 3.094,-11.829C2.594,-11.727 -0.036,-11.224 -1.561,-10.908C-1.332,-12.79 -1.193,-14.904 0,-16.465M-1.346,2.937C-0.272,2.773 0.728,2.4 1.536,1.811C3.691,0.241 5.614,-3.092 5.557,-5.785C5.538,-6.726 2.252,-6.742 2.222,-5.785C2.166,-4.011 1.373,-2.39 0.44,-0.912C0.017,-0.244 -0.486,0.387 -1.085,0.906C-1.16,0.968 -1.301,1.11 -1.376,1.174C-2.091,-0.064 -1.966,-1.985 -1.967,-3.275C-1.969,-5.278 -1.921,-7.291 -1.732,-9.283C-1.732,-9.283 5.669,-10.61 6.035,-10.9C6.345,-11.145 6.702,-18.516 6.702,-18.516C6.749,-19.142 6.42,-19.421 6.065,-19.438C5.028,-19.486 3.616,-19.474 2.781,-19.399C1.824,-19.317 0.909,-19.154 0.042,-18.864C-1.445,-18.366 -2.784,-17.706 -3.577,-16.281C-4.29,-15.001 -5.3,-7.408 -5.46,-4.921C-5.626,-2.335 -5.829,0.762 -3.539,2.541C-3.172,2.828 -2.211,3.021 -1.346,2.937" style="fill-rule: nonzero;" fill="#284528"></path>
        </g>
        <g transform="matrix(4.16667,0,0,4.16667,120.685,351.118)">
            <path d="M0,-10.32C-1.069,-9.746 -2.899,-9.47 -4.986,-9.104C-5.106,-9.085 -4.271,-17.776 -4.231,-18.211C-2.049,-18.68 0.728,-19.296 1.329,-19.004C1.93,-18.71 2.152,-17.191 2.11,-16.581C1.953,-14.266 1.542,-11.149 0,-10.32M5.773,-16.897C5.733,-18.008 5.388,-18.765 4.862,-19.275C3.956,-20.315 2.653,-20.759 0.958,-20.449C-0.738,-20.139 -7.324,-18.835 -12.817,-17.842C-13.265,-17.759 -13.468,-17.397 -13.403,-16.994C-13.34,-16.59 -12.762,-16.466 -12.246,-16.57C-11.209,-16.78 -9.164,-17.172 -7.783,-17.397C-7.783,-17.397 -9.057,-4.487 -9.678,1.492C-9.781,2.487 -6.149,1.955 -6.047,1.124L-5.158,-7.121C-5.158,-7.121 -1.794,-7.794 -0.816,-8.016C-0.419,-8.108 0.138,-8.251 0.739,-8.449C1.564,-3.107 1.078,-1.989 0.611,0.109C0.056,2.592 -2.127,5.902 -4.89,7.663C-5.434,8.012 -6.181,8.509 -6.835,8.591C-7.427,8.665 -8.138,8.371 -8.697,8.124C-10.03,7.533 -11.184,6.617 -12.194,5.576C-13.315,4.421 -14.291,3.078 -14.906,1.583C-15.355,0.494 -15.819,-1.052 -15.892,-2.772C-15.931,-3.661 -19.42,-3.061 -19.371,-2.022C-19.322,-0.983 -18.817,1.204 -18.219,2.497C-17.621,3.788 -16.085,5.749 -14.598,6.976C-11.772,9.304 -7.785,10.439 -4.202,9.381C-0.621,8.323 2.228,5.321 3.655,1.951C4.43,0.121 4.967,-1.81 4.954,-3.881C4.944,-5.566 4.833,-7.262 4.375,-9.317C4.317,-9.569 3.908,-9.709 3.378,-9.758C5.349,-11.398 5.885,-13.949 5.773,-16.897" style="fill-rule: nonzero;" fill="#284528"></path>
        </g>
        <g transform="matrix(4.16667,0,0,4.16667,210.323,251.599)">
            <path d="M0,44.373C-3.727,41.178 -6.28,37.061 -7.799,32.399C-0.784,30.545 6.574,28.753 13.908,27.063C11.397,34.09 6.599,40.603 0,44.373M13.385,16.997C12.815,17.624 12.246,18.251 11.635,18.837C11.438,19.028 11.197,19.209 10.949,19.389C10.82,18.808 10.801,18.202 10.773,17.608C10.698,16.02 10.662,14.461 10.771,12.867C11.031,8.98 11.243,7.11 12.279,4.68C12.642,3.827 13.556,1.817 13.824,1.38C13.974,1.134 17.25,2.584 17.25,2.584L16.19,13.214C15.287,14.516 14.471,15.802 13.385,16.997M81.167,11.682C81.167,11.682 39.243,18.93 18.323,23.849C18.683,22.254 18.95,20.611 19.113,18.921C19.629,13.481 20.088,7.792 20.593,2.269C20.77,0.423 20.888,-0.81 20.888,-0.81C20.891,-0.84 20.891,-0.869 20.888,-0.895C20.895,-0.966 20.903,-1.039 20.908,-1.11C20.972,-1.761 17.706,-1.571 17.63,-0.774L17.459,1.04C16.656,0.707 15.837,0.324 14.996,0.121C13.06,-0.342 11.255,-0.015 10.396,1.722C8.226,6.108 7.528,8.877 7.012,13.126C6.779,15.05 6.839,17.375 7.192,19.291C7.57,21.329 9.249,21.663 11.132,21.42C12.998,21.179 14.522,19.78 15.8,18.479L15.751,19C15.723,19.267 15.693,19.535 15.659,19.801L15.631,19.992L15.636,19.99C15.432,21.522 15.117,23.063 14.693,24.592C11.52,25.25 9.037,25.789 7.561,26.149C4.23,26.968 -4.587,29.112 -11.072,30.751C-11.566,30.876 -11.322,31.395 -11.2,31.906C-11.175,32.01 -11.151,32.101 -11.128,32.186C-9.817,37.488 -6.443,42.23 -2.124,45.514C-2.038,45.581 -1.943,45.633 -1.843,45.679C-1.66,45.833 -1.278,45.947 -1.128,45.978C-0.431,46.13 0.499,46.134 1.161,45.826C9.347,42.015 15.095,35.022 17.712,26.197C48.675,19.2 81.132,13.537 81.132,13.537C81.718,13.428 81.936,11.577 81.167,11.682" style="fill-rule: nonzero;" fill="#284528"></path>
        </g>
    </g>
</svg>