<svg xmlns="http://www.w3.org/2000/svg" width="20" height="20" viewBox="0 0 20 20">
  <path fill-rule="evenodd" d="M14.1454686,6.76141187 C14.1660089,6.92450262 14.0547092,7.07416821 13.897552,7.09505178 L13.056,7.207 L13.056,7.584 L13.4380982,8.55562544 C13.6431619,8.49660931 13.8590875,8.46507041 14.0819775,8.46507041 C15.4156636,8.46507041 16.5,9.59427494 16.5,10.9825352 C16.5,12.3707955 15.4156636,13.5 14.0819775,13.5 C12.7482915,13.5 11.6639551,12.3707955 11.6639551,10.9825352 C11.6639551,10.0376832 12.1662397,9.21283054 12.9075649,8.78230661 L12.658,8.149 L9.38010979,11.2050852 L9.36987584,11.21413 C9.36093931,11.2217054 9.35152694,11.2287469 9.34167415,11.2351976 L9.38010979,11.2050852 C9.36095278,11.2230321 9.33970047,11.2379387 9.31702419,11.2496363 C9.30735828,11.2546247 9.29717668,11.2591705 9.28666551,11.2631172 C9.27409637,11.2677299 9.26178785,11.2713477 9.24927847,11.2741064 C9.24895045,11.27433 9.24789694,11.2745624 9.24684084,11.274789 C9.22725591,11.2787668 9.20814866,11.281253 9.18856373,11.281253 L9.18,11.28 L8.31920115,11.2806227 C8.17720116,12.5288839 7.15483218,13.5 5.91802247,13.5 C4.58433643,13.5 3.5,12.3707955 3.5,10.9825352 C3.5,9.59427494 4.58433643,8.46507041 5.91802247,8.46507041 C6.33276875,8.46507041 6.72340118,8.57427236 7.06480863,8.76650768 L8.25039364,7.20488689 C8.2577415,7.19565813 8.26246055,7.19005282 8.26738042,7.18463205 L8.25039364,7.20488689 C8.2634816,7.18762145 8.27822175,7.1720758 8.2942994,7.15842863 C8.30229534,7.15175545 8.31039679,7.14558093 8.31883253,7.13984498 C8.32769009,7.1337666 8.33681715,7.12829976 8.34620968,7.12337196 C8.35297465,7.1198605 8.35992896,7.11656225 8.36704591,7.11354435 C8.3794963,7.1082215 8.39259147,7.10377022 8.40599424,7.10031342 C8.40987625,7.09931713 8.41371384,7.09840851 8.4175862,7.09757754 L8.43126937,7.09504095 C8.43638664,7.09422103 8.44153864,7.09354336 8.44672063,7.09301062 L12.739,6.648 L13.8249445,6.50384783 C13.9787579,6.47650029 14.1258837,6.59832112 14.1454686,6.76141187 Z M5.91802247,9.06124665 C4.90056142,9.06124665 4.07273981,9.92294258 4.07273981,10.9825352 C4.07273981,12.0416306 4.90056142,12.9038238 5.91802247,12.9038238 C6.83824366,12.9038238 7.60334136,12.198557 7.74117866,11.2802158 L5.74925463,11.2806639 C5.63938795,11.2806639 5.53907488,11.215527 5.49130676,11.1126009 C5.44306095,11.0096747 5.45595835,10.8873566 5.52426677,10.7978556 L6.70323094,9.24396936 C6.46484733,9.12679663 6.19864792,9.06124665 5.91802247,9.06124665 Z M14.0819775,9.06124665 C13.9359028,9.06124665 13.7937369,9.07900769 13.6573683,9.11256549 L14.3475683,10.8695504 C14.4072785,11.0221994 14.3370593,11.1962292 14.1908889,11.2588799 C14.1550628,11.2737967 14.1182813,11.2812551 14.0819775,11.2812551 C13.9692448,11.2812551 13.8622442,11.211146 13.8163868,11.0957891 L13.1258052,9.33978859 C12.5931795,9.67709542 12.2366949,10.2872052 12.2366949,10.9825352 C12.2366949,12.0416306 13.0645165,12.9038238 14.0819775,12.9038238 C15.0994386,12.9038238 15.9272602,12.0416306 15.9272602,10.9825352 C15.9272602,9.92294258 15.0994386,9.06124665 14.0819775,9.06124665 Z M7.17855657,9.58055351 L6.34062402,10.6844876 L7.74117866,10.684738 C7.67627688,10.2521932 7.47230699,9.86704306 7.17855657,9.58055351 Z M8.319,8.077 L7.53443195,9.11158347 C7.95949657,9.51003211 8.2484928,10.0628808 8.31920115,10.6844478 L8.837,10.684 L8.319,8.077 Z M12.4831272,7.27499602 L8.82,7.654 L9.368,10.414 L12.4831272,7.51117927 L12.4831272,7.27499602 Z"/>
</svg>
