<svg xmlns="http://www.w3.org/2000/svg" width="20" height="20" viewBox="0 0 20 20">
  <path fill-rule="evenodd" d="M10,1 C14.9705627,1 19,5.02943725 19,10 C19,14.9705627 14.9705627,19 10,19 C5.02943725,19 1,14.9705627 1,10 C1,5.02943725 5.02943725,1 10,1 Z M13.8901027,6.50094564 L13.8249445,6.50384783 L12.739,6.648 L8.44672063,7.09301062 C8.44153864,7.09354336 8.43638664,7.09422103 8.43126937,7.09504095 L8.43126937,7.09504095 L8.4175862,7.09757754 C8.41371384,7.09840851 8.40987625,7.09931713 8.40599424,7.10031342 C8.39259147,7.10377022 8.3794963,7.1082215 8.36704591,7.11354435 C8.35992896,7.11656225 8.35297465,7.1198605 8.34620968,7.12337196 L8.34620968,7.12337196 L8.31883253,7.13984498 C8.31039679,7.14558093 8.30229534,7.15175545 8.2942994,7.15842863 C8.27822175,7.1720758 8.2634816,7.18762145 8.25039364,7.20488689 L8.25039364,7.20488689 L7.06480863,8.76650768 C6.72340118,8.57427236 6.33276875,8.46507041 5.91802247,8.46507041 C4.58433643,8.46507041 3.5,9.59427494 3.5,10.9825352 C3.5,12.3707955 4.58433643,13.5 5.91802247,13.5 C7.15483218,13.5 8.17720116,12.5288839 8.31920115,11.2806227 L8.31920115,11.2806227 L9.18,11.28 C9.20814866,11.281253 9.22725591,11.2787668 9.24684084,11.274789 L9.24684084,11.274789 C9.26178785,11.2713477 9.27409637,11.2677299 9.28666551,11.2631172 C9.29717668,11.2591705 9.30735828,11.2546247 9.31702419,11.2496363 L9.31702419,11.2496363 L9.349,11.229 L9.34167415,11.2351976 C9.34660054,11.2319723 9.35141683,11.2285992 9.35611859,11.2250856 L9.36987584,11.21413 L9.374,11.21 L9.38010979,11.2050852 L12.658,8.149 L12.9075649,8.78230661 C12.1662397,9.21283054 11.6639551,10.0376832 11.6639551,10.9825352 C11.6639551,12.3707955 12.7482915,13.5 14.0819775,13.5 C15.4156636,13.5 16.5,12.3707955 16.5,10.9825352 C16.5,9.59427494 15.4156636,8.46507041 14.0819775,8.46507041 C13.8590875,8.46507041 13.6431619,8.49660931 13.4380982,8.55562544 L13.4380982,8.55562544 L13.056,7.584 L13.056,7.207 L13.897552,7.09505178 C14.0547092,7.07416821 14.1660089,6.92450262 14.1454686,6.76141187 C14.1258837,6.59832112 13.9787579,6.47650029 13.8249445,6.50384783 Z M5.91802247,9.06124665 C6.19864792,9.06124665 6.46484733,9.12679663 6.70323094,9.24396936 L6.70323094,9.24396936 L5.52426677,10.7978556 C5.45595835,10.8873566 5.44306095,11.0096747 5.49130676,11.1126009 C5.53907488,11.215527 5.63938795,11.2806639 5.74925463,11.2806639 L5.74925463,11.2806639 L7.74117866,11.2802158 C7.60334136,12.198557 6.83824366,12.9038238 5.91802247,12.9038238 C4.90056142,12.9038238 4.07273981,12.0416306 4.07273981,10.9825352 C4.07273981,9.92294258 4.90056142,9.06124665 5.91802247,9.06124665 Z M14.0819775,9.06124665 C15.0994386,9.06124665 15.9272602,9.92294258 15.9272602,10.9825352 C15.9272602,12.0416306 15.0994386,12.9038238 14.0819775,12.9038238 C13.0645165,12.9038238 12.2366949,12.0416306 12.2366949,10.9825352 C12.2366949,10.2872052 12.5931795,9.67709542 13.1258052,9.33978859 L13.1258052,9.33978859 L13.8163868,11.0957891 C13.8622442,11.211146 13.9692448,11.2812551 14.0819775,11.2812551 C14.1182813,11.2812551 14.1550628,11.2737967 14.1908889,11.2588799 C14.3370593,11.1962292 14.4072785,11.0221994 14.3475683,10.8695504 L14.3475683,10.8695504 L13.6573683,9.11256549 C13.7937369,9.07900769 13.9359028,9.06124665 14.0819775,9.06124665 Z M7.17855657,9.58055351 C7.47230699,9.86704306 7.67627688,10.2521932 7.74117866,10.684738 L7.74117866,10.684738 L6.34062402,10.6844876 Z M8.319,8.077 L8.837,10.684 L8.31920115,10.6844478 C8.2484928,10.0628808 7.95949657,9.51003211 7.53443195,9.11158347 L7.53443195,9.11158347 L8.319,8.077 Z M12.4831272,7.27499602 L12.4831272,7.51117927 L9.368,10.414 L8.82,7.654 L12.4831272,7.27499602 Z"/>
</svg>
