<svg xmlns="http://www.w3.org/2000/svg" width="25" height="25" viewBox="0 0 25 25"><g fill="none" fill-rule="evenodd" transform="rotate(-60 16.654 8.46)"><path fill="#88A648" d="M1.58715653,0 C0.711553373,0 0,0.710547411 0,1.58715701 C0,2.46477305 0.710546933,3.17431403 1.58715653,3.17431403 C2.89049687,3.17531999 3.66344311,1.58715701 3.66344311,1.58715701 C3.66344311,1.58715701 2.97101211,-0.00100596227 1.58715653,0" transform="scale(1 -1) rotate(30.475 27.124 1.604)"/><path fill="#66943E" d="M3.15720358,0 C3.15720358,0 3.36553674,1.72000667 2.17290485,2.42149564 C1.4170681,2.8663423 0.444846663,2.6147322 0,1.85889544 L3.15720358,0 Z" transform="translate(3.756 10.308)"/><path fill="#88A648" d="M1.5871561,-4.36473834e-19 C0.710546738,-0.00100537229 0,0.709541366 0,1.58715717 C0,2.46376653 0.710546738,3.17431327 1.5871561,3.17531971 C2.89049608,3.17531971 3.66444855,1.58816361 3.66444855,1.58816361 C3.66444855,1.58816361 2.97101129,-4.36473834e-19 1.5871561,-4.36473834e-19" transform="scale(1 -1) rotate(10.612 57.668 26.879)"/><path fill="#66943E" d="M3.60205024,0 C3.60205024,0 3.2125578,1.68880701 1.8528568,1.94343644 C0.991343808,2.10547335 0.162036907,1.53683451 0,0.675321518 L3.60205024,0 Z" transform="translate(5.643 7.925)"/><path fill="#88A648" d="M1.5871569,0 C0.709540656,0.00100644065 0,0.711553537 0,1.58816334 C0,2.46477314 0.710547096,3.17532024 1.5871569,3.17632668 C2.89049754,3.17532024 3.66445039,1.5871569 3.66445039,1.5871569 C3.66445039,1.5871569 2.97000635,0 1.5871569,0" transform="scale(-1 1) rotate(-42.997 9.967 11.032)"/><path fill="#66943E" d="M0,0.242268951 C0,0.242268951 1.59017585,-0.446136293 2.60164847,0.497904816 C3.24275101,1.09673686 3.27696999,2.1011644 2.67914438,2.7412605 L0,0.242268951 Z" transform="translate(1.084 8.18)"/><path fill="#88A648" d="M1.58816384,0 C0.711553759,0 0.00100644096,0.711553759 0,1.58816384 C0,2.46477391 0.711553759,3.17632767 1.58816384,3.1753223 C2.89150488,3.1753223 3.66445154,1.58715739 3.66445154,1.58715739 C3.66445154,1.58715739 2.97101371,0 1.58816384,0" transform="scale(-1 1) rotate(-83.65 1.628 7.406)"/><path fill="#66943E" d="M0,0 C0,0 1.65458804,0.514291052 1.80756698,1.88808222 C1.90418526,2.75965962 1.27616645,3.54468314 0.404589046,3.64230786 L0,0 Z" transform="translate(3.93 4.739)"/><path fill="#88A648" d="M1.5881625,0 C0.710546722,0 0,0.710547201 0,1.58715654 C0,2.46477232 0.711553163,3.17531905 1.5881625,3.17431367 C2.8925089,3.17431367 3.66444847,1.5861501 3.66444847,1.5861501 C3.66444847,1.5861501 2.97101122,-0.00100596167 1.5881625,0" transform="scale(1 -1) rotate(57.993 9.952 3.4)"/><path fill="#66943E" d="M1.94343644,0 C1.94343644,0 2.92169652,1.42914539 2.18800146,2.60164847 C1.72302599,3.34540794 0.743759466,3.57185703 0,3.10688156 L1.94343644,0 Z" transform="translate(6.214 2.894)"/><path fill="#66943E" fill-rule="nonzero" d="M1.26883176,10.4649674 C1.08264028,10.4649674 0.900474564,10.3804264 0.781714596,10.219396 C-0.929234109,7.89049285 0.262391342,4.09721893 3.43871729,1.76328361 C4.94837791,0.653179829 6.6814683,0.0271738912 8.31894686,0 C8.65107219,0.017109487 8.92784331,0.259661627 8.93395227,0.592793404 C8.93891415,0.925925181 8.67321388,1.20168985 8.34008211,1.20672206 C6.95018789,1.22987019 5.46266896,1.77334801 4.15429642,2.73550505 C1.51440322,4.67592216 0.438518414,7.71235289 1.75494248,9.50381683 C1.9522048,9.77354286 1.89483769,10.150958 1.6261181,10.3482203 C1.51842898,10.4277291 1.39363037,10.4649674 1.26883176,10.4649674" transform="translate(3.082 4.34)"/><path fill="#344061" d="M1.81662495,0 C0.814210295,0 0,0.814210295 0,1.81662495 C0,2.8190396 0.814210295,3.63224345 1.81662495,3.63224345 C2.8190396,3.63224345 3.63224345,2.8190396 3.63224345,1.81662495 C3.63224345,0.814210295 2.8190396,0 1.81662495,0" transform="matrix(0 -1 -1 0 13.981 7.723)"/><path fill="#6A6C87" d="M0.689411684,0 C0.308977207,0 0,0.308977207 0,0.689411684 C0,1.06984616 0.308977207,1.37882337 0.689411684,1.37882337 C1.06984616,1.37882337 1.37882337,1.06984616 1.37882337,0.689411684 C1.37882337,0.308977207 1.06984616,0 0.689411684,0" transform="matrix(0 -1 -1 0 13.544 6.58)"/><path fill="#344061" d="M1.81461353,0 C0.811192146,-0.00100550637 -0.00100550637,0.813205027 0,1.81561997 C-0.00100550637,2.81904136 0.813205027,3.63123901 1.81461353,3.63123901 C2.81904136,3.63123901 3.63224545,2.81803492 3.6302363,1.81461353 C3.63123901,0.811192146 2.81702848,-0.00100550637 1.81461353,0" transform="scale(1 -1) rotate(32.862 15.684 21.814)"/><path fill="#6A6C87" d="M0.911836952,0 C0.408616697,0 -0.00100458985,0.408614847 0,0.911835101 C0,1.41505536 0.408616697,1.8236702 0.911836952,1.8236702 C1.41505721,1.8236702 1.82367205,1.41505536 1.82266747,0.911835101 C1.82367205,0.408614847 1.41405077,0 0.911836952,0" transform="scale(1 -1) rotate(77.859 10.397 7.743)"/><path fill="#344061" d="M1.81562071,0 C0.812198916,-0.00100550793 -1.04753822e-16,0.812198916 -1.04753822e-16,1.81562071 C-0.00100550793,2.81803607 0.812198916,3.63023405 1.81562071,3.63124049 C2.81702962,3.63124049 3.63224693,2.81803607 3.63124142,1.81562071 C3.63124142,0.813205357 2.81904251,0.00100737431 1.81562071,0" transform="scale(-1 1) rotate(77.843 -4.806 -5.803)"/><path fill="#6A6C87" d="M0.777981024,0 C0.348230742,0 0,0.348228566 0,0.776972407 C-0.00100426484,1.20772913 0.347224301,1.5559577 0.777981024,1.5559577 C1.20672487,1.55495126 1.55595987,1.20873557 1.55495561,0.778985289 C1.55595987,0.348228566 1.20773131,0 0.777981024,0" transform="scale(1 -1) rotate(-57.173 2.988 -9.29)"/><path fill="#344061" d="M1.48550751,0 C0.664251957,-0.0010053019 -0.00100530018,0.665258396 0,1.48550751 C0,2.30575662 0.664251957,2.97000744 1.48550751,2.97101388 C2.30575663,2.97000744 2.97202032,2.30575662 2.97101502,1.48550751 C2.97101502,0.664251955 2.30575663,0 1.48550751,0" transform="scale(-1 1) rotate(77.856 -9.901 -7.003)"/><path fill="#6A6C87" d="M0.636073231,0 C0.284825394,0 -0.00100379107,0.285831835 0,0.636073231 C0,0.987321068 0.284825394,1.27315025 0.636073231,1.27214646 C0.987321068,1.27315025 1.27214646,0.987321068 1.27214646,0.636073231 C1.27315025,0.284825394 0.987321068,-0.00100379107 0.636073231,0" transform="scale(1 -1) rotate(-57.14 2.18 -15.986)"/><path fill="#344061" d="M1.81662495,0 C0.813203855,0 0,0.814210295 0,1.81662495 C0,2.81803316 0.813203855,3.63224345 1.81662495,3.63224345 C2.8190396,3.63224345 3.63224345,2.81803316 3.63224345,1.81662495 C3.63224345,0.814210295 2.8190396,0 1.81662495,0" transform="matrix(0 -1 -1 0 20.384 5.29)"/><path fill="#6A6C87" d="M0.689411684,0 C0.308977207,0 0,0.307970767 0,0.689411684 C0,1.06984616 0.308977207,1.37882337 0.689411684,1.37882337 C1.06984616,1.37882337 1.37882337,1.06984616 1.37882337,0.689411684 C1.37882337,0.307970767 1.06984616,0 0.689411684,0" transform="matrix(0 -1 -1 0 19.946 4.149)"/></g></svg>