<svg xmlns="http://www.w3.org/2000/svg" width="20" height="20" viewBox="0 0 20 20">
  <path fill="#699333" d="M16.3715153,3.38877468 L13.8979431,3.38877468 C13.8195041,3.38877468 13.7521735,3.33166772 13.7376646,3.25273939 C13.7229289,3.17404321 13.7650955,3.09557917 13.8380937,3.06632927 L16.4463044,2.01588615 C16.4873375,1.99592193 16.5385723,1.99452907 16.5802855,2.01310044 L19.1771611,3.06632927 C19.2499326,3.09557917 19.2920992,3.17427536 19.2773635,3.25297154 C19.2626279,3.33166772 19.1952973,3.38877468 19.117085,3.38877468 L16.6435581,3.38877468 L16.6435581,5.36706666 L17.1968253,5.36706666 L17.1968253,5.20605288 L17.4652409,5.20605288 L17.4652409,5.36706666 L18.9923307,5.36706666 L18.9923307,5.21512964 C18.9923307,5.19725469 19.0063862,5.18286188 19.0238423,5.18286188 L19.0596613,5.18286188 C19.0771173,5.18286188 19.0911729,5.19725469 19.0911729,5.21512964 L19.0911729,5.36706666 L19.1658713,5.36706666 C19.2223202,5.36706666 19.2678874,5.41395937 19.2676607,5.47176275 L19.2636027,6.74794087 L19.843122,6.74794087 L19.843122,6.4907274 L20,6.4907274 L20,7.33897473 L19.843122,7.33897473 L19.843122,7.08199339 L19.2625372,7.08199339 L19.2624465,7.10998973 C19.2622198,7.16756098 19.2168794,7.2139894 19.1606572,7.2139894 L18.6035814,7.2139894 L18.6035814,7.75515913 C18.6035814,7.78278404 18.5815913,7.80530183 18.5546137,7.80530183 L17.5249316,7.80530183 C17.497954,7.80530183 17.4759639,7.78278404 17.4759639,7.75515913 L17.4759639,7.47408144 L17.3993612,7.47408144 L16.6672712,8.05534211 L16.1063869,8.05534211 C16.033162,8.20648985 15.9125337,8.32929303 15.7643837,8.40334637 L18.3089817,8.40334637 C18.416824,8.40334637 18.4852655,8.4831104 18.4853562,8.55734946 L18.4854242,8.55734946 L18.4854242,9.15093687 L7.3755574,9.15093687 L7.3755574,9.15107615 L17.0961014,9.15107615 L17.0963054,9.1509833 L18.4853108,9.1509833 L18.4853108,9.15107615 L18.4853562,9.15107615 L18.4853108,9.15109937 L18.4732956,9.61874968 C18.4680814,9.72785648 18.4197938,9.80771337 18.3261658,9.8569275 L17.4040766,10.2983922 C17.4066156,10.303569 17.409064,10.3087457 17.4114444,10.3139689 C17.5585742,10.6354858 17.4220994,11.0187524 17.1083433,11.1696448 C16.794814,11.3189122 16.4198482,11.1807876 16.2729451,10.8578779 C16.2706781,10.8529797 16.2685017,10.8480351 16.2663707,10.8430905 L14.6807917,11.6022184 C14.8268334,11.9234103 14.6902906,12.3057484 14.3770106,12.4564086 C14.0642747,12.6053046 13.6903971,12.4682478 13.5427232,12.1470792 L12.3083515,12.7380434 C12.2328596,12.773329 12.1698363,12.7837754 12.0866366,12.7786683 L11.1687187,12.7208649 C11.1367537,12.7187756 11.1054687,12.725972 11.0750906,12.7417577 C10.7155407,12.9135429 8.49861825,13.973736 8.13068031,14.145289 C8.09236761,14.1638604 8.06697695,14.1917174 8.05042767,14.2281637 C7.97425568,14.3781275 7.76954344,14.7678942 7.70130603,14.8974295 C7.68158293,14.9283044 7.65573886,14.9508222 7.62377382,14.9663757 L6.83772871,15.3408906 C6.84258014,15.3503155 6.84725021,15.359903 6.85169358,15.3696298 C6.99882341,15.6911466 6.86234859,16.0744133 6.54859252,16.2253056 C6.23506315,16.374573 5.86009744,16.2364485 5.7131943,15.9135388 C5.70852424,15.9033942 5.70414888,15.8932031 5.70004557,15.8829424 L4.11231289,16.6394008 C4.11507865,16.6450418 4.11775374,16.6506829 4.12036082,16.6563936 C4.26749065,16.9779104 4.13101583,17.3611771 3.81725976,17.5120694 C3.50373039,17.6613368 3.12876468,17.5232123 2.98186154,17.2003026 C2.97905043,17.194174 2.97633001,17.1880222 2.97372293,17.1818705 L1.29016316,17.9839912 C1.24935673,18.0020983 1.20855031,18.0034911 1.16910409,17.9949018 C0.936054064,17.939652 0.162772298,17.7571883 0.156197929,17.7553312 C0.125139705,17.7465098 0,17.719117 0,17.5589389 L0,17.2070115 L0,17.206965 L4.16071384,9.15107615 L5.95231996,9.15107615 L5.95231996,9.15093687 L4.16078185,9.15093687 L4.16078185,8.55748874 L4.16071384,8.55748874 C4.16071384,8.46648903 4.25320841,8.40334637 4.33686158,8.40334637 L5.95231996,8.40334637 L5.95231996,8.13018473 C5.95231996,8.10265267 5.96014119,8.07697776 5.97365265,8.05534211 L5.70757209,8.05534211 L5.11211565,7.47408144 L5.08230429,7.47408144 L5.08230429,7.75515913 C5.08230429,7.78278404 5.06031416,7.80530183 5.03333658,7.80530183 L4.00365444,7.80530183 C3.97667686,7.80530183 3.95468673,7.78278404 3.95468673,7.75515913 L3.95468673,7.2139894 L3.08473908,7.2139894 C3.02851689,7.2139894 2.98294972,7.16756098 2.98294972,7.10998973 L2.98283636,7.08199339 L2.46275847,7.08199339 L2.46275847,7.33920687 L2.30588043,7.33920687 L2.30588043,6.49095954 L2.46275847,6.49095954 L2.46275847,6.74770873 L2.9815895,6.74770873 L2.97682875,5.47176275 C2.97660205,5.41395937 3.02239593,5.36706666 3.07861811,5.36706666 L3.09566613,5.36706666 L3.09566613,5.21512964 C3.09566613,5.19725469 3.10972168,5.18286188 3.12717776,5.18286188 L3.16299673,5.18286188 C3.18045282,5.18286188 3.19450836,5.19725469 3.19450836,5.21512964 L3.19450836,5.36706666 L3.72766698,5.36706666 L3.72766698,4.67943847 C3.72766698,4.66179567 3.74172253,4.64740285 3.75917861,4.64740285 L3.79499759,4.64740285 C3.81245367,4.64740285 3.82650921,4.66179567 3.82650921,4.67943847 L3.82650921,5.36706666 L5.1973104,5.36706666 L5.1973104,4.67943847 C5.1973104,4.66179567 5.21136595,4.64740285 5.22882203,4.64740285 L5.26464101,4.64740285 C5.28209709,4.64740285 5.29615263,4.66179567 5.29615263,4.67943847 L5.29615263,5.36706666 L6.29946929,5.36706666 L6.29946929,5.20605288 L6.56788489,5.20605288 L6.56788489,5.36706666 L8.11580864,5.36706666 L8.11580864,5.20605288 L8.38422424,5.20605288 L8.38422424,5.36706666 L9.93192128,5.36706666 L9.93192128,5.20605288 L10.2003369,5.20605288 L10.2003369,5.36706666 L11.7482606,5.36706666 L11.7482606,5.20605288 L12.0166762,5.20605288 L12.0166762,5.36706666 L13.5643733,5.36706666 L13.5643733,5.20605288 L13.8327889,5.20605288 L13.8327889,5.36706666 L15.3807126,5.36706666 L15.3807126,5.20605288 L15.6491282,5.20605288 L15.6491282,5.36706666 L16.3715153,5.36706666 L16.3715153,3.38877468 Z M6.37684281,8.05534211 L6.2030301,8.05534211 C6.21654156,8.07697776 6.2243628,8.10265267 6.2243628,8.13018473 L6.2243628,8.40334637 L6.71884599,8.40334637 C6.57074134,8.32931625 6.45009034,8.20653628 6.37684281,8.05534211 Z M14.7684349,8.05534211 L7.71479482,8.05534211 C7.64202336,8.20556128 7.5224152,8.32778411 7.3755574,8.40197673 L7.3755574,8.40334637 L15.1104381,8.40334637 C14.9623334,8.32931625 14.8416824,8.20653628 14.7684349,8.05534211 Z M6.33775932,7.47408144 L5.58542485,7.47408144 L5.83837935,7.72105745 L6.2995373,7.72105745 C6.29951463,7.71943245 6.29951463,7.71780746 6.29951463,7.71620568 C6.29951463,7.63158987 6.31295808,7.55020084 6.33775932,7.47408144 Z M14.7293514,7.47408144 L7.75387831,7.47408144 C7.77867955,7.55020084 7.792123,7.63158987 7.792123,7.71620568 C7.792123,7.71780746 7.792123,7.71943245 7.79210033,7.72105745 L14.6911294,7.72105745 C14.6911067,7.71943245 14.6911067,7.71780746 14.6911067,7.71620568 C14.6911067,7.63158987 14.7045501,7.55020084 14.7293514,7.47408144 Z M16.8667466,7.47408144 L16.1454704,7.47408144 C16.1702716,7.55020084 16.1837151,7.63158987 16.1837151,7.71620568 C16.1837151,7.71780746 16.1837151,7.71943245 16.1836924,7.72105745 L16.5557336,7.72105745 L16.8667466,7.47408144 Z M7.60833539,7.2139894 L7.60842607,7.21408226 L14.8748943,7.21408226 L14.8748943,7.2139894 L7.60833539,7.2139894 Z M15.9999275,7.2139894 L16.0000181,7.21408226 L17.1941502,7.21408226 L17.1942862,7.2139894 L15.9999275,7.2139894 Z M5.31904957,7.2139894 L5.31914025,7.21408226 L6.48323423,7.21408226 L6.48330224,7.2139894 L5.31904957,7.2139894 Z"/>
</svg>
