<svg xmlns="http://www.w3.org/2000/svg" width="20" height="20" viewBox="0 0 20 20">
  <path fill-rule="evenodd" d="M8.89634091,9.64346343 C8.0754706,9.56119847 7.34748165,9.04447042 7.01942639,8.26384167 C6.96587318,8.13699414 7.02695731,7.9923797 7.15456457,7.93990532 C7.28217183,7.88701776 7.42902478,7.94651627 7.48257799,8.07336379 C7.77051017,8.75714218 8.45021756,9.18106908 9.18527722,9.15813737 C9.38472109,8.9721632 9.66202631,8.85671955 9.96811638,8.85671955 C10.3558751,8.85671955 10.6973187,9.04182604 10.8928297,9.32076663 C11.4162705,9.63288591 12.0770669,9.66391604 12.6339785,9.37981064 C12.7574019,9.31535392 12.9084387,9.36493602 12.9720331,9.48682533 C13.0356276,9.60830146 12.987095,9.75787411 12.8636715,9.82067809 C12.5335662,9.98884403 12.1750107,10.0702413 11.8185472,10.0702413 C11.5630816,10.0702413 11.3087039,10.0281378 11.0666685,9.9454597 L11.0718146,11.5953039 L11.0718146,13.2520895 C11.0718146,13.3888535 10.9592692,13.5 10.8207839,13.5 C10.6822987,13.5 10.5697532,13.3888535 10.5697532,13.2520895 L10.5697532,11.8440407 L9.37150014,11.8440407 L9.37150014,12.4250602 C9.37150014,12.4895169 9.34639707,12.5514945 9.30079317,12.5977712 L8.66568556,13.2452307 C8.61631619,13.295226 8.55062983,13.3204302 8.48536186,13.3204302 C8.42260419,13.3204302 8.35942814,13.2972919 8.31047715,13.2506021 C8.21132004,13.1555697 8.20880973,12.9985598 8.30503816,12.8998088 L8.86985718,12.3246565 L8.86985718,11.5978656 L8.86985718,9.86364924 C8.86985718,9.78799523 8.8790198,9.7143245 8.89634091,9.64346343 Z M9.24577561,8.39527553 L8.71388345,8.39527553 L8.71388345,7.62220806 C8.71388345,7.00243188 9.27493701,6.5 9.9669449,6.5 C10.6585344,6.5 11.219588,7.00243188 11.219588,7.62220806 L11.2279557,8.39527553 L10.5878693,8.39527553 C10.4294271,8.52443689 10.2322007,8.60872645 10.0160632,8.62864192 L10.0160632,8.62864192 C9.98388947,8.63182344 9.95322189,8.63310431 9.92037871,8.63318695 L9.91648774,8.63318695 C9.67487071,8.63318695 9.45212283,8.55282264 9.27426759,8.41767011 C9.26464475,8.41035675 9.25514742,8.40287812 9.24577561,8.39527553 Z"/>
</svg>
