<svg xmlns="http://www.w3.org/2000/svg" width="20" height="20" viewBox="0 0 20 20">
  <path fill-rule="evenodd" d="M10,1 C14.9705627,1 19,5.02943725 19,10 C19,14.9705627 14.9705627,19 10,19 C5.02943725,19 1,14.9705627 1,10 C1,5.02943725 5.02943725,1 10,1 Z M7.48257799,8.07336379 C7.42902478,7.94651627 7.28217183,7.88701776 7.15456457,7.93990532 C7.02695731,7.9923797 6.96587318,8.13699414 7.01942639,8.26384167 C7.34748165,9.04447042 8.0754706,9.56119847 8.89634091,9.64346343 C8.8790198,9.7143245 8.86985718,9.78799523 8.86985718,9.86364924 L8.86985718,9.86364924 L8.86985718,12.3246565 L8.30503816,12.8998088 C8.20880973,12.9985598 8.21132004,13.1555697 8.31047715,13.2506021 C8.35942814,13.2972919 8.42260419,13.3204302 8.48536186,13.3204302 C8.55062983,13.3204302 8.61631619,13.295226 8.66568556,13.2452307 L8.66568556,13.2452307 L9.30079317,12.5977712 C9.34639707,12.5514945 9.37150014,12.4895169 9.37150014,12.4250602 L9.37150014,12.4250602 L9.37150014,11.8440407 L10.5697532,11.8440407 L10.5697532,13.2520895 C10.5697532,13.3888535 10.6822987,13.5 10.8207839,13.5 C10.9592692,13.5 11.0718146,13.3888535 11.0718146,13.2520895 L11.0718146,13.2520895 L11.0718146,11.5953039 L11.0666685,9.9454597 C11.3087039,10.0281378 11.5630816,10.0702413 11.8185472,10.0702413 C12.1750107,10.0702413 12.5335662,9.98884403 12.8636715,9.82067809 C12.987095,9.75787411 13.0356276,9.60830146 12.9720331,9.48682533 C12.9084387,9.36493602 12.7574019,9.31535392 12.6339785,9.37981064 C12.0770669,9.66391604 11.4162705,9.63288591 10.8928297,9.32076663 C10.6973187,9.04182604 10.3558751,8.85671955 9.96811638,8.85671955 C9.66202631,8.85671955 9.38472109,8.9721632 9.18527722,9.15813737 C8.45021756,9.18106908 7.77051017,8.75714218 7.48257799,8.07336379 Z M9.9669449,6.5 C9.27493701,6.5 8.71388345,7.00243188 8.71388345,7.62220806 L8.71388345,7.62220806 L8.71388345,8.39527553 L9.24577561,8.39527553 C9.25514742,8.40287812 9.26464475,8.41035675 9.27426759,8.41767011 C9.45212283,8.55282264 9.67487071,8.63318695 9.91648774,8.63318695 L9.91648774,8.63318695 C9.95322189,8.63310431 9.98388947,8.63182344 10.0160632,8.62864192 L10.0160632,8.62864192 L10.1433174,8.60912377 C10.3095399,8.57321575 10.4611155,8.49860462 10.5878693,8.39527553 L10.5878693,8.39527553 L11.2279557,8.39527553 L11.219588,7.62220806 C11.219588,7.00243188 10.6585344,6.5 9.9669449,6.5 Z"/>
</svg>
