<svg xmlns="http://www.w3.org/2000/svg" width="20" height="20" viewBox="0 0 20 20">
  <defs>
    <filter id="time-a" color-interpolation-filters="auto">
      <feColorMatrix in="SourceGraphic" values="0 0 0 0 0.000000 0 0 0 0 0.000000 0 0 0 0 0.000000 0 0 0 1.000000 0"/>
    </filter>
  </defs>
  <g fill="none" fill-rule="evenodd" filter="url(#time-a)">
    <g transform="translate(4.5 4.5)">
      <path fill="#143E26" d="M5.50030208,0.724995881 C2.86675454,0.724995881 0.724391717,2.86675454 0.724391717,5.50030208 C0.724391717,8.13324546 2.86675454,10.2756083 5.50030208,10.2756083 C8.13324546,10.2756083 10.2756083,8.13324546 10.2756083,5.50030208 C10.2756083,2.86675454 8.13324546,0.724995881 5.50030208,0.724995881 Z M5.50030208,11 C2.46740265,11 0,8.53259735 0,5.50030208 C0,2.46740265 2.46740265,0 5.50030208,0 C8.53259735,0 11,2.46740265 11,5.50030208 C11,8.53259735 8.53259735,11 5.50030208,11 L5.50030208,11 Z"/>
      <path fill="#143E26" d="M8.5531389,6.01142418 L5.50030208,6.01142418 C5.30032405,6.01142418 5.13780414,5.84950843 5.13780414,5.6495304 L5.13780414,2.51815236 C5.13780414,2.31817433 5.30032405,2.15625858 5.50030208,2.15625858 C5.70028011,2.15625858 5.86219586,2.31817433 5.86219586,2.51815236 L5.86219586,5.28703246 L8.5531389,5.28703246 C8.7537211,5.28703246 8.91563684,5.44955237 8.91563684,5.6495304 C8.91563684,5.84950843 8.7537211,6.01142418 8.5531389,6.01142418"/>
    </g>
  </g>
</svg>
