<svg xmlns="http://www.w3.org/2000/svg" width="20" height="20" viewBox="0 0 20 20">
  <path fill="#8ab5c5" d="M0.859529015,10.6812379 C0.859529015,9.49281963 1.80508262,8.52599561 2.96641457,8.52599561 C3.05172228,8.52599561 3.13631313,8.53111495 3.22090398,8.54135363 C3.45962221,8.57280101 3.66106312,8.40605678 3.69618983,8.17349245 C3.93992616,6.57918356 5.31990394,5.37760122 6.90634073,5.37760122 C7.80816517,5.37760122 8.62539876,5.75204441 9.21681781,6.35685792 C7.43969318,6.41024533 5.98229327,7.78661658 5.78085236,9.55571438 C5.52421234,9.48404361 5.25896986,9.44674556 4.99372737,9.44674556 C3.35782645,9.44674556 2.02659594,10.8041021 2.02659594,12.4730071 C2.02659594,12.5176185 2.03734901,12.5585732 2.03949962,12.6024533 C1.34341733,12.2506815 0.859529015,11.5251978 0.859529015,10.6812379 Z M15.8450124,4.8554285 C14.0951289,4.8554285 12.576078,5.96486271 11.9753396,7.5635596 C11.5581204,7.08672961 11.024051,6.72983844 10.4297645,6.52945283 C9.70572422,5.3154378 8.39958421,4.5 6.90634073,4.5 C5.03172157,4.5 3.38435069,5.82883452 2.92483602,7.64912572 C1.30829062,7.67179709 0,9.02330297 0,10.6812379 C0,12.0963699 0.959174164,13.2782062 2.24739238,13.608038 C2.6882684,14.7160096 3.75067207,15.5 4.99372737,15.5 C5.18154773,15.5 5.37080182,15.4817166 5.57654396,15.4436873 L16.6837521,13.2379828 C18.6056848,12.8372116 20,11.0922479 20,9.08766039 C20,6.75324114 18.1368508,4.8554285 15.8450124,4.8554285 L15.8450124,4.8554285 Z"/>
</svg>
