<svg xmlns="http://www.w3.org/2000/svg" width="25" height="25" viewBox="0 0 25 25"><g fill="none" fill-rule="evenodd" transform="translate(5 1)"><path fill="#F6E1DF" d="M12.1798229,3.928 C12.1798229,5.32 11.0518229,6.449 9.65882291,6.449 C8.26682291,6.449 7.13882291,5.32 7.13882291,3.928 C7.13882291,2.535 8.26682291,1.407 9.65882291,1.407 C11.0518229,1.407 12.1798229,2.535 12.1798229,3.928"/><path fill="#F8DBD7" d="M12.1798229,3.928 C12.1798229,5.32 11.0518229,6.449 9.65882291,6.449 C8.26682291,6.449 7.13882291,5.32 7.13882291,3.928 C7.13882291,2.535 8.26682291,1.407 9.65882291,1.407 C11.0518229,1.407 12.1798229,2.535 12.1798229,3.928"/><path fill="#F3C3BF" d="M8.83802291,3.928 C8.83802291,2.617 9.31802291,1.542 9.91202291,1.419 C9.83202291,1.411 9.74102291,1.407 9.65902291,1.407 C8.26702291,1.407 7.13902291,2.535 7.13902291,3.928 C7.13902291,5.32 8.26702291,6.449 9.65902291,6.449 C9.74102291,6.449 9.81702291,6.446 9.89702291,6.438 C9.30302291,6.315 8.83802291,5.238 8.83802291,3.928"/><path fill="#354061" d="M5.03722291 12.5804C4.90022291 12.5804 4.76322291 12.5344 4.65022291 12.4394 4.39722291 12.2264 4.36522291 11.8474 4.57822291 11.5944L7.78222291 7.7934C7.99722291 7.5414 8.37622291 7.5084 8.62822291 7.7214 8.88122291 7.9344 8.91322291 8.3134 8.70022291 8.5664L5.49622291 12.3674C5.37722291 12.5084 5.20822291 12.5804 5.03722291 12.5804M14.3311229 12.4983C14.1641229 12.4983 13.9971229 12.4293 13.8781229 12.2923L10.4271229 8.3233C10.2101229 8.0733 10.2361229 7.6943 10.4861229 7.4773 10.7351229 7.2603 11.1141229 7.2853 11.3331229 7.5363L14.7841229 11.5053C15.0011229 11.7553 14.9751229 12.1343 14.7251229 12.3523 14.6111229 12.4503 14.4711229 12.4983 14.3311229 12.4983M11.7110229 22.2122C11.3800229 22.2122 11.1110229 21.9432 11.1110229 21.6122L11.1110229 14.9412C11.1110229 14.6092 11.3800229 14.3412 11.7110229 14.3412 12.0420229 14.3412 12.3110229 14.6092 12.3110229 14.9412L12.3110229 21.6122C12.3110229 21.9432 12.0420229 22.2122 11.7110229 22.2122M7.64752291 22.2122C7.31652291 22.2122 7.04752291 21.9432 7.04752291 21.6122L7.04752291 14.9412C7.04752291 14.6092 7.31652291 14.3412 7.64752291 14.3412 7.97852291 14.3412 8.24752291 14.6092 8.24752291 14.9412L8.24752291 21.6122C8.24752291 21.9432 7.97852291 22.2122 7.64752291 22.2122"/><path fill="#354061" d="M11.6983229,9.473 C11.6983229,8.825 11.3253229,8.256 10.7643229,7.93 L9.65932291,11.362 L8.55732291,7.942 C8.01032291,8.271 7.64732291,8.833 7.64732291,9.473 L7.64732291,14.998 L11.7113229,14.998 L11.6983229,9.473 Z"/><path fill="#354061" d="M8.24692291,14.399 L11.1099229,14.399 L11.0989229,9.474 L11.0989229,9.473 C11.0989229,9.338 11.0719229,9.206 11.0249229,9.081 L10.2309229,11.545 C10.1509229,11.793 9.91992291,11.961 9.65892291,11.961 C9.39892291,11.961 9.16792291,11.793 9.08792291,11.545 L8.30792291,9.121 C8.26792291,9.235 8.24692291,9.353 8.24692291,9.473 L8.24692291,14.399 Z M11.7109229,15.598 L7.64792291,15.598 C7.31692291,15.598 7.04792291,15.329 7.04792291,14.998 L7.04792291,9.473 C7.04792291,8.644 7.49592291,7.879 8.24892291,7.427 C8.40492291,7.333 8.59792291,7.317 8.76892291,7.38 C8.93992291,7.445 9.07192291,7.583 9.12892291,7.758 L9.65892291,9.405 L10.1939229,7.746 C10.2489229,7.574 10.3799229,7.435 10.5499229,7.369 C10.7199229,7.305 10.9089229,7.321 11.0669229,7.411 C11.8369229,7.86 12.2979229,8.63 12.2979229,9.472 L12.3109345,14.997 C12.3119229,15.157 12.2479229,15.309 12.1359229,15.422 C12.0239229,15.535 11.8699229,15.598 11.7109229,15.598 L11.7109229,15.598 Z"/><path fill="#B51F26" d="M9.67982291,12.0638 L9.67282291,12.0638 C9.41282291,12.0608 9.16382291,11.8918 9.08682291,11.6428 L7.98582291,8.1208 C7.88582291,7.8048 8.06282291,7.4678 8.37882291,7.3698 C8.69682291,7.2708 9.03182291,7.4468 9.12982291,7.7628 L9.65882291,9.4548 L10.1928229,7.7518 C10.2908229,7.4348 10.6288229,7.2598 10.9438229,7.3578 C11.2598229,7.4568 11.4368229,7.7928 11.3368229,8.1088 L10.2658229,11.5368 C10.2318229,11.8338 9.98682291,12.0638 9.67982291,12.0638"/><polygon fill="#354061" points="11.306 1.578 11.58 .599 7.607 .599 7.949 1.578"/><path fill="#354061" d="M11.3057229,2.178 L7.94872291,2.178 C7.69372291,2.178 7.46572291,2.017 7.38172291,1.777 L7.03972291,0.798 C6.97572291,0.615 7.00472291,0.411 7.11772291,0.252 C7.22972291,0.094 7.41172291,0 7.60672291,0 L11.5797229,0 C11.7677229,0 11.9447229,0.088 12.0587229,0.238 C12.1717229,0.387 12.2077229,0.581 12.1587229,0.762 L11.8837229,1.741 C11.8107229,1.999 11.5747229,2.178 11.3057229,2.178"/><path fill="#B51F26" d="M11.6163229,1.9916 L7.63932291,1.9916 C7.50232291,1.9916 7.38932291,1.8796 7.38932291,1.7416 C7.38932291,1.6036 7.50232291,1.4916 7.63932291,1.4916 L11.6163229,1.4916 C11.7543229,1.4916 11.8663229,1.6036 11.8663229,1.7416 C11.8663229,1.8796 11.7543229,1.9916 11.6163229,1.9916"/><path fill="#354061" d="M11.7393229,2.3753 L6.58532291,2.3753 C6.44732291,2.3753 6.33532291,2.2633 6.33532291,2.1253 C6.33532291,1.9873 6.44732291,1.8753 6.58532291,1.8753 L11.7393229,1.8753 C11.8773229,1.8753 11.9893229,1.9873 11.9893229,2.1253 C11.9893229,2.2633 11.8773229,2.3753 11.7393229,2.3753"/><path fill="#EAE8EB" d="M4.41902291,6.2786 C5.06902291,7.2326 4.82202291,8.5346 3.86802291,9.1846 C2.91302291,9.8356 1.61202291,9.5886 0.962022907,8.6326 C0.312022907,7.6776 0.559022907,6.3776 1.51302291,5.7266 C2.46802291,5.0766 3.77002291,5.3236 4.41902291,6.2786"/><path fill="#EAE8EB" d="M2.68762291,5.9632 C2.39062291,5.9632 2.10062291,6.0522 1.85062291,6.2232 C1.17062291,6.6862 0.995622907,7.6152 1.45862291,8.2952 C1.91962291,8.9762 2.85162291,9.1512 3.53062291,8.6892 C3.85962291,8.4652 4.08162291,8.1252 4.15562291,7.7342 C4.23062291,7.3422 4.14762291,6.9452 3.92262291,6.6162 L3.92262291,6.6152 C3.69962291,6.2862 3.36062291,6.0652 2.96862291,5.9902 C2.87462291,5.9722 2.78062291,5.9632 2.68762291,5.9632 M2.69662291,10.1492 C2.52762291,10.1492 2.35862291,10.1332 2.18862291,10.1012 C1.48262291,9.9662 0.871622907,9.5652 0.465622907,8.9712 C-0.369377093,7.7442 -0.0503770927,6.0672 1.17462291,5.2312 C1.77062291,4.8262 2.48862291,4.6752 3.19262291,4.8112 C3.89962291,4.9452 4.51062291,5.3472 4.91562291,5.9422 C5.31962291,6.5352 5.46862291,7.2512 5.33462291,7.9572 C5.20162291,8.6632 4.79962291,9.2762 4.20662291,9.6812 C3.75362291,9.9882 3.23162291,10.1492 2.69662291,10.1492"/><path fill="#EAE8EB" d="M5.70712291,12.4837 C5.51512291,12.4837 5.32612291,12.3917 5.21012291,12.2217 L2.19412291,7.7937 C2.00812291,7.5187 2.07912291,7.1457 2.35312291,6.9597 C2.62612291,6.7717 3.00012291,6.8437 3.18612291,7.1177 L6.20212291,11.5467 C6.38912291,11.8207 6.31712291,12.1937 6.04412291,12.3797 C5.94012291,12.4507 5.82312291,12.4837 5.70712291,12.4837"/><path fill="#66943E" d="M2.68862291,5.3636 C2.28362291,5.3636 1.87362291,5.4816 1.51262291,5.7266 C0.557622907,6.3776 0.311622907,7.6776 0.961622907,8.6336 C1.36662291,9.2276 2.02362291,9.5486 2.69262291,9.5486 C3.09762291,9.5486 3.50762291,9.4296 3.86862291,9.1846 C4.82362291,8.5346 5.06962291,7.2326 4.41862291,6.2786 C4.01462291,5.6836 3.35762291,5.3636 2.68862291,5.3636 M2.68862291,6.5636 C2.98562291,6.5636 3.26062291,6.7096 3.42762291,6.9536 C3.56162291,7.1506 3.61162291,7.3876 3.56662291,7.6226 C3.52262291,7.8556 3.38962291,8.0586 3.19262291,8.1926 C3.04362291,8.2946 2.87062291,8.3476 2.69262291,8.3476 C2.39562291,8.3476 2.12062291,8.2016 1.95362291,7.9576 C1.67662291,7.5516 1.78262291,6.9956 2.18862291,6.7186 C2.33662291,6.6176 2.50962291,6.5636 2.68862291,6.5636"/></g></svg>