<svg xmlns="http://www.w3.org/2000/svg" width="25" height="25" viewBox="0 0 20 20">
  <path fill="#284528" d="M5.75131365,4.65382552 L5.8393069,4.72978873 L10,8.89 L14.1606931,4.72978873 C14.4670781,4.42340376 14.9638263,4.42340376 15.2702113,4.72978873 C15.5487431,5.00832053 15.5740641,5.44417731 15.3461745,5.75131365 L15.2702113,5.8393069 L11.11,10 L15.2702113,14.1606931 C15.5765962,14.4670781 15.5765962,14.9638263 15.2702113,15.2702113 C14.9916795,15.5487431 14.5558227,15.5740641 14.2486863,15.3461745 L14.1606931,15.2702113 L10,11.11 L5.8393069,15.2702113 L5.75896508,15.3404245 C5.45145252,15.5744686 5.01064163,15.5510642 4.72978873,15.2702113 C4.45125694,14.9916795 4.42593586,14.5558227 4.65382552,14.2486863 L4.72978873,14.1606931 L8.89,10 L4.72978873,5.8393069 L4.65957551,5.75896508 C4.42553143,5.45145252 4.44893584,5.01064163 4.72978873,4.72978873 C5.00832053,4.45125694 5.44417731,4.42593586 5.75131365,4.65382552 Z"/>
</svg>
