<svg xmlns="http://www.w3.org/2000/svg" width="20" height="20" viewBox="0 0 20 20">
  <path fill-rule="evenodd" d="M10,1 C14.9705627,1 19,5.02943725 19,10 C19,14.9705627 14.9705627,19 10,19 C5.02943725,19 1,14.9705627 1,10 C1,5.02943725 5.02943725,1 10,1 Z M12.5252872,7 C12.3408744,7 12.1910041,7.14660751 12.1910041,7.3270056 L12.1910041,7.3270056 L12.1913541,7.48806735 C12.1248418,7.4894499 12.0595859,7.4958953 11.9959744,7.50702544 L11.9959744,7.50702544 L11.9966652,7.3270056 C11.9966652,7.14660751 11.846795,7 11.6623821,7 C11.4779693,7 11.328099,7.14660751 11.328099,7.3270056 L11.328099,7.3270056 L11.3289187,7.8485132 C11.1010491,8.07135389 10.9599538,8.37914791 10.9599538,8.71896122 C10.9599538,8.72468301 10.9599939,8.73039577 10.9600739,8.73609924 L10.9600739,8.73609924 L10.733,8.736 L8.11647181,8.73640497 C8.09122482,8.73640497 8.06663569,8.73914261 8.04315259,8.74382796 C7.42606674,8.76853776 6.91327561,9.22928832 6.77460696,9.84112274 L6.77460696,9.84112274 L5.60802618,10.8913041 C5.47208439,11.0133862 5.46317017,11.2204898 5.58852633,11.353472 C5.65426867,11.4237782 5.74396796,11.4586588 5.83422439,11.4586588 C5.91556661,11.4586588 5.99635169,11.4303184 6.06042261,11.3725474 L6.06042261,11.3725474 L6.82685257,10.6839226 C6.92485287,10.9536383 7.09815468,11.1843814 7.3195129,11.347411 L7.3195129,11.347411 L7.32094325,12.3542219 C7.32094325,12.53462 7.4708135,12.6812275 7.65522634,12.6812275 C7.83963917,12.6812275 7.98950942,12.53462 7.98950942,12.3542219 L7.98950942,12.3542219 L7.989,11.599 L8.09537046,11.6046281 L8.243,11.604 L8.24372321,12.6729944 C8.24372321,12.8533925 8.39359346,13 8.5780063,13 C8.76241913,13 8.91228938,12.8533925 8.91228938,12.6729944 L8.91228938,12.6729944 L8.912,11.604 L10.405,11.604 L10.4054375,12.3542219 C10.4054375,12.53462 10.5553078,12.6812275 10.7397206,12.6812275 C10.9241334,12.6812275 11.0740037,12.53462 11.0740037,12.3542219 L11.0740037,12.3542219 L11.074,11.604 L11.1735605,11.6046281 C11.1995393,11.6046281 11.2248326,11.6017187 11.2489916,11.5966197 C11.2756608,11.5955312 11.3021335,11.5936281 11.328388,11.5909335 L11.328388,11.5909335 L11.328099,12.6729944 C11.328099,12.8533925 11.4779693,13 11.6623821,13 C11.846795,13 11.9966652,12.8533925 11.9966652,12.6729944 L11.9966652,12.6729944 L11.9969859,11.3210885 C12.3336716,11.0604667 12.5524083,10.6401397 12.5524083,10.1670545 C12.5524083,10.0791213 12.5448444,9.99301092 12.5302757,9.91089529 C12.839464,9.83366644 13.1031414,9.64430485 13.2731105,9.38989823 L13.2731105,9.38989823 L13.9469851,9.38986726 C14.1313979,9.38986726 14.2812681,9.24325975 14.2812681,9.06286167 C14.2812681,9.01571217 14.2710304,8.97090816 14.2517692,8.93182133 C14.3945762,8.89461796 14.5,8.76708578 14.5,8.61578416 C14.5,8.43538607 14.3501298,8.28932357 14.1657169,8.28932357 L14.1657169,8.28932357 L13.3981777,8.28927647 C13.2971383,8.02434615 13.1054273,7.80249441 12.8601328,7.65986228 L12.8601328,7.65986228 L12.8595703,7.3270056 C12.8595703,7.14660751 12.7097,7 12.5252872,7 Z"/>
</svg>
