<svg xmlns="http://www.w3.org/2000/svg" xmlns:xlink="http://www.w3.org/1999/xlink" width="20" height="20" viewBox="0 0 20 20">
<g fill="white" transform="translate(4.5 4.5)" >
    <path fill="#FFFFFE" d="M11,5.53361237 C11,2.4774804 8.53756836,0 5.5,0 C2.46243164,0 0,2.4774804 0,5.53361237 C0,8.29559826 2.01127051,10.584871 4.640625,11 L4.640625,7.1331722 L3.24414062,7.1331722 L3.24414062,5.53361237 L4.640625,5.53361237 L4.640625,4.3144884 C4.640625,2.9276268 5.46173633,2.16156733 6.71805664,2.16156733 C7.31980176,2.16156733 7.94921875,2.2696457 7.94921875,2.2696457 L7.94921875,3.63143312 L7.25568164,3.63143312 C6.57244629,3.63143312 6.359375,4.05798601 6.359375,4.49559532 L6.359375,5.53361237 L7.88476562,5.53361237 L7.64091797,7.1331722 L6.359375,7.1331722 L6.359375,11 C8.98872949,10.584871 11,8.29559826 11,5.53361237"/>
  </g>
</svg>
