<svg xmlns="http://www.w3.org/2000/svg" width="20" height="20" viewBox="0 0 20 20">
  <path fill="#284528" d="M9.68605484,10.0990501 C9.49675834,10.1626636 9.2598668,10.2174092 9.00537636,10.2174092 C8.82591964,10.2174092 8.63779351,10.1902626 8.45140126,10.1196815 C7.9771847,9.94051401 7.62477331,9.5296956 7.40457037,8.89944226 C7.35472128,8.75827999 7.42494348,8.60263954 7.55931929,8.55106102 C7.69586245,8.49903005 7.84367583,8.57232585 7.89309145,8.71303567 C8.05781018,9.18448146 8.30445481,9.48580862 8.62608981,9.60842072 C9.03034425,9.76329201 9.47686205,9.61434772 9.70504084,9.51295521 C9.80296179,9.00060856 10.2675553,8.61155267 10.8239145,8.61155267 C11.2407829,8.61155267 11.6061117,8.82976601 11.8042944,9.15462021 C12.3685861,9.94901994 13.0187916,10.9851601 13.2581106,11.3706869 L15.2040456,11.0042079 L16.0176695,8.73068096 C16.0441112,8.65693272 16.0995954,8.59901999 16.170251,8.57096852 C16.2413402,8.54382193 16.3197983,8.54925124 16.3856858,8.58725647 C17.1811039,9.03969965 17.6748266,9.9079381 17.6748266,10.852187 L17.675,10.8639505 C17.675,12.285527 16.5670498,13.4419717 15.2046525,13.4419717 C14.1879478,13.4419717 13.2653495,12.7804998 12.8993705,11.7923639 C12.8184849,11.6605672 12.4173081,11.011447 11.9631613,10.3238691 L11.9673659,12.2042682 C11.9674093,12.2062589 11.9674526,12.2082949 11.9674526,12.2102857 L11.9674526,15.2285341 C11.9674526,15.3782928 11.8508491,15.5 11.7073704,15.5 C11.5638917,15.5 11.4472882,15.3782928 11.4472882,15.2285341 L11.4472882,12.4853711 L10.2058291,12.4853711 L10.2058291,14.0514579 C10.2058291,14.1609492 10.1434094,14.2591293 10.046312,14.301659 L8.91798874,14.7939172 C8.88547846,14.8079429 8.8512343,14.815182 8.81785709,14.815182 C8.71642503,14.815182 8.61976114,14.7522924 8.57771452,14.6482305 C8.52223031,14.5097829 8.58508351,14.3509753 8.71772544,14.2930626 L9.68609819,13.8704807 L9.68609819,12.2188369 C9.68605484,12.2172081 9.68605484,12.2155793 9.68605484,12.2139052 L9.68605484,10.0990501 Z M14.309883,15.4585562 C13.8473702,15.4585562 13.4706844,15.0658355 13.4706844,14.5821738 C13.4706844,14.0994169 13.8473702,13.7071487 14.309883,13.7071487 C14.7723959,13.7071487 15.1490816,14.0994169 15.1490816,14.5821738 C15.1490816,15.0658355 14.7723959,15.4585562 14.309883,15.4585562 Z M16.0861144,15.4585562 C15.6236016,15.4585562 15.2469159,15.0658355 15.2469159,14.5821738 C15.2469159,14.0994169 15.6236016,13.7071487 16.0861144,13.7071487 C16.5490608,13.7071487 16.9257465,14.0994169 16.9257465,14.5821738 C16.9257465,15.0658355 16.5490608,15.4585562 16.0861144,15.4585562 Z M4.5975898,9.97598555 C4.40820661,10.0395991 4.17131507,10.0942994 3.91686797,10.0942994 C3.73741125,10.0942994 3.54928512,10.0671529 3.36289287,9.99657172 C2.88867632,9.81740422 2.53626492,9.40658582 2.31606199,8.77633247 C2.2662129,8.6351702 2.3364351,8.47952975 2.4708109,8.42795123 C2.60735406,8.37546782 2.75516745,8.44876362 2.80458307,8.58992589 C2.9693018,9.06137167 3.21594643,9.36269883 3.53758142,9.48531093 C3.94192256,9.63945832 4.38822363,9.49123793 4.61653246,9.39007164 C4.71423667,8.87767974 5.17896023,8.48844288 5.73544946,8.48844288 C6.15184108,8.48844288 6.51686645,8.70620378 6.71522248,9.03056029 C7.41852812,10.0200083 8.25590613,11.3867034 8.26474893,11.4007291 C8.34190665,11.5269608 8.30679555,11.6952696 8.18542385,11.7758045 C8.14207682,11.8047609 8.09352814,11.8183342 8.0458464,11.8183342 C7.96001927,11.8183342 7.87549256,11.7739947 7.82607694,11.6934598 C7.81996501,11.6829179 7.3800793,10.965343 6.87465288,10.2003069 L6.87890089,12.0846422 L6.87894423,12.0936458 L6.87894423,15.1054696 C6.87894423,15.2552282 6.76234071,15.3769355 6.61886203,15.3769355 C6.47538334,15.3769355 6.35877982,15.2552282 6.35877982,15.1054696 L6.35877982,12.3622613 L5.11732075,12.3622613 L5.11732075,13.9283481 C5.11732075,14.0378394 5.05490102,14.136472 4.95780366,14.1785492 L3.82991382,14.6712598 C3.79740355,14.6852856 3.76315939,14.6925247 3.72978217,14.6925247 C3.62835011,14.6925247 3.53168623,14.6296351 3.4896396,14.5255731 C3.4341554,14.3871255 3.4970086,14.228318 3.62965052,14.1704052 L4.5975898,13.7473709 L4.5975898,12.0932386 L4.5975898,9.97598555 Z M14.309883,14.249628 C14.1338941,14.249628 13.9908488,14.3989343 13.9908488,14.5821738 C13.9908488,14.7663181 14.1338941,14.9160768 14.309883,14.9160768 C14.485872,14.9160768 14.6289172,14.7663181 14.6289172,14.5821738 C14.6289172,14.3989343 14.485872,14.249628 14.309883,14.249628 Z M16.0861144,14.249628 C15.9101255,14.249628 15.7670803,14.3989343 15.7670803,14.5821738 C15.7670803,14.7663181 15.9101255,14.9160768 16.0861144,14.9160768 C16.2621034,14.9160768 16.4055821,14.7663181 16.4055821,14.5821738 C16.4055821,14.3989343 16.2621034,14.249628 16.0861144,14.249628 Z M9.73694426,6.80214193 L9.75124878,6.37729779 C9.75558349,6.1542433 9.86915272,5.95924029 10.033438,5.85472592 C10.0373392,5.64660206 10.1392047,5.44390752 10.3156272,5.33215405 C10.4920496,5.22040059 10.6992484,5.22718724 10.8600659,5.33124917 C11.0252181,5.22718724 11.2319835,5.21904326 11.4049381,5.33034428 C11.5770259,5.4416453 11.6706555,5.6438874 11.6667542,5.8524637 C11.8275717,5.95607319 11.9333385,6.1510762 11.9290038,6.37413068 C11.9264463,6.51963641 11.91691,6.79295733 11.9105813,6.96542867 L11.9105813,6.97121994 C11.9105813,7.00347914 11.9092809,7.03542163 11.9067668,7.06695692 C11.9055097,7.10070918 11.9047295,7.12066192 11.9047295,7.12066192 L11.9012617,7.12066192 C11.8355476,7.64490783 11.4284756,8.05735503 10.9205784,8.10685231 L10.9206217,8.10685231 C10.8872012,8.11033612 10.8558179,8.1117387 10.821357,8.11182918 L10.8174558,8.11182918 C10.5670833,8.11182918 10.3363471,8.02378374 10.1520355,7.87569909 C9.92888493,7.69644111 9.77387593,7.42922817 9.73473356,7.12382902 L9.7261075,7.12382902 L9.72827485,7.05971783 C9.7261075,7.03053524 9.72502383,7.0009907 9.72502383,6.97121994 C9.72502383,6.91375966 9.72909845,6.85724951 9.73694426,6.80214193 Z M4.99581901,7.79579763 L4.44444473,7.79579763 L4.44444473,6.948824 C4.44444473,6.27015924 5.02572847,5.71998834 5.74225495,5.71998834 C6.4592149,5.71998834 7.04049863,6.27015924 7.04049863,6.948824 L7.04873457,7.79579763 L6.38522151,7.79579763 C6.22123968,7.93691465 6.01716184,8.02903208 5.79344779,8.05083984 L5.79362118,8.05088509 C5.75894355,8.05450463 5.72599981,8.05586196 5.69045524,8.05586196 L5.69036855,8.05586196 C5.42655849,8.05586196 5.18463869,7.95831521 4.99581901,7.79579763 Z"/>
</svg>
