<svg xmlns="http://www.w3.org/2000/svg" width="20" height="20" viewBox="0 0 20 20">
  <path fill-rule="evenodd" d="M14.4897651,9.42589834 C14.1073116,10.0923306 13.4880512,10.5689431 12.7451483,10.7685633 C11.2169058,11.1801832 9.64360721,10.2687391 9.23548213,8.74038098 C9.03796845,8.0043138 9.13803507,7.2352345 9.51734515,6.57447623 C9.89927479,5.90701237 10.5190591,5.42936821 11.2614381,5.23026385 C11.5087231,5.16372379 11.7575799,5.13174329 12.0027693,5.13174329 C13.2685333,5.13174329 14.4300395,5.97767894 14.772676,7.25741452 C14.9696657,7.99399751 14.8690752,8.76410844 14.4897651,9.42589834 Z M15.3793625,7.0923539 C14.8806012,5.22974803 12.9599509,4.12229447 11.0995502,4.61850794 C10.1942355,4.86197235 9.43875881,5.44381102 8.97247983,6.25776617 C8.50986822,7.06553155 8.38727352,8.00586124 8.62827165,8.90544159 C8.76344016,9.41093972 9.0112491,9.8535085 9.32611838,10.2310847 L8.286683,11.2678716 C8.0645456,11.0795994 7.73500686,11.0832101 7.52491937,11.2931465 L4.66542425,14.1548849 C4.44485858,14.3761693 4.44485858,14.7341445 4.66542425,14.9554289 L5.04421043,15.3340367 C5.26477611,15.5553211 5.62312984,15.5553211 5.84369551,15.3340367 L8.70319063,12.4722983 C8.91118249,12.2639093 8.91642157,11.9373988 8.73200562,11.7145669 L9.77091709,10.6788116 C10.3907014,11.1951418 11.175517,11.4999881 12.0032932,11.4999881 C12.3013974,11.4999881 12.6047407,11.4607862 12.9065122,11.3798034 C13.8123508,11.1368548 14.5678276,10.5550161 15.0341065,9.7426084 C15.497766,8.9343272 15.6203607,7.9934817 15.3793625,7.0923539 L15.3793625,7.0923539 Z"/>
</svg>
