<svg xmlns="http://www.w3.org/2000/svg" width="20" height="20" viewBox="0 0 20 20">
  <path fill="#284528" d="M2.50241911,8.02257823 C2.98442588,8.02257823 3.38806393,8.34452813 3.48407113,8.77323944 C3.68429714,8.62326643 3.93804134,8.53429331 4.21338575,8.53429331 C4.86588258,8.53429331 5.39707903,9.03348294 5.39707903,9.64787017 L5.398,10.127 L5.51764583,10.1634915 C5.91904369,10.2593906 6.33656818,10.1135441 6.54468709,10.0208198 L6.54402145,8.95705024 C6.54402145,8.8057391 6.66532183,8.68322736 6.81457992,8.68322736 C6.963838,8.68322736 7.08513838,8.8057391 7.08513838,8.95705024 L7.08513838,15.22572 C7.08513838,15.3770311 6.963838,15.5 6.81457992,15.5 C6.66532183,15.5 6.54402145,15.3770311 6.54402145,15.22572 L6.5457317,10.6083554 C6.34208526,10.6787535 6.07816692,10.7429331 5.79295116,10.7429331 C5.66508448,10.7429331 5.53277535,10.7298513 5.39979102,10.6986936 L5.40296941,12.1623475 L5.40296941,12.1623475 L5.40298622,15.2149774 C5.40298622,15.3662885 5.28168584,15.4892574 5.13242776,15.4892574 C4.98316967,15.4892574 4.86186929,15.3662885 4.86186929,15.2149774 L4.861,12.448 L3.57,12.448 L3.57035846,14.0305905 C3.57035846,14.1412168 3.50542443,14.2404147 3.40441594,14.2833853 L2.23109406,14.7807464 C2.19727426,14.7949175 2.16165072,14.8022316 2.12692906,14.8022316 C2.02141125,14.8022316 1.92085369,14.7386901 1.87711341,14.6335494 C1.81939427,14.4936666 1.88477923,14.3332128 2.02276405,14.2746997 L3.02969247,13.8477372 L3.029,11.27 L1.77010753,11.2709679 C1.62084945,11.2709679 1.5,11.1484561 1.5,10.997145 L1.5,8.97021568 C1.5,8.44725512 1.94957798,8.02257823 2.50241911,8.02257823 Z M9.76709426,8.53415617 C10.4195911,8.53415617 10.9507875,9.0333458 10.9507875,9.64773303 L10.9516443,10.1270374 L10.9516443,10.1270374 C11.5450692,10.3464614 12.2264256,9.95789802 12.2331896,9.95332668 C12.3644104,9.87789968 12.5280983,9.92315588 12.6025019,10.0543532 C12.6769054,10.1850933 12.6331652,10.3524041 12.503748,10.4282882 C12.4762413,10.444745 11.9603764,10.7423389 11.3462087,10.7423389 C11.2184258,10.7423389 11.0864176,10.7294884 10.9536546,10.6985099 L10.9566947,12.1653036 L10.9566947,12.1653036 L10.9566947,15.2148402 C10.9566947,15.3661514 10.8353944,15.4891202 10.6861363,15.4891202 C10.5368782,15.4891202 10.4155778,15.3661514 10.4155778,15.2148402 L10.415,12.448 L9.132,12.448 L9.13286012,15.2148402 C9.13286012,15.3661514 9.01155974,15.4891202 8.86230166,15.4891202 C8.71304357,15.4891202 8.59174319,15.3661514 8.59174319,15.2148402 L8.59129907,12.2398135 C8.5861392,12.2186801 8.58340097,12.1965859 8.58340097,12.173852 L8.58340097,9.64819017 C8.58340097,9.03380293 9.11459742,8.53415617 9.76709426,8.53415617 Z M17.49713,8.0118356 C18.0499711,8.0118356 18.5,8.43651249 18.5,8.95947305 L18.5,8.95947305 L18.5,10.9859452 C18.5,11.1372564 18.3791506,11.2597681 18.2298925,11.2597681 L18.2298925,11.2597681 L16.969,11.259 L16.9698566,12.1632465 C16.9698566,12.1728535 16.9693676,12.1823463 16.9684135,12.1917007 L16.970037,12.2313136 L16.970037,15.1488302 C16.970037,15.3365748 16.8487366,15.4891202 16.6994785,15.4891202 C16.5502204,15.4891202 16.42892,15.3365748 16.42892,15.1488302 L16.42892,15.1488302 L16.428,12.437 L15.137,12.437 L15.1376798,15.2149774 C15.1376798,15.3446726 15.0485611,15.453545 14.9291052,15.4820045 L14.8671213,15.4892574 C14.7178632,15.4892574 14.5965628,15.3662885 14.5965628,15.2149774 L14.5965628,15.2149774 L14.5966027,12.1627893 L14.6005612,10.6877157 C14.46746,10.7188638 14.3351085,10.7317791 14.2070038,10.7317791 C13.592836,10.7317791 13.0769712,10.4341853 13.0494645,10.4177285 C12.9200473,10.3418443 12.876307,10.1745335 12.9507106,10.0437934 C13.0251142,9.9125961 13.189253,9.8673399 13.3200229,9.9427669 C13.3267869,9.94733824 14.0085942,10.3368159 14.6015682,10.1164776 L14.6015682,10.1164776 L14.60247,9.63712754 C14.60247,9.02274031 15.1336665,8.52355068 15.7861633,8.52355068 C16.0619705,8.52355068 16.3161048,8.61282311 16.5176095,8.76229855 C16.6114851,8.33378549 17.0151232,8.0118356 17.49713,8.0118356 Z M9.70058197,5.20809957 C10.0139789,5.20809957 10.2683038,5.46546565 10.2683038,5.78363047 C10.2683038,5.84431621 10.2590247,5.90281704 10.2418272,5.95775352 L10.2414493,5.95785079 L10.2680783,5.96922661 L10.2680783,5.96922661 L10.2944596,5.98132785 C10.5224213,6.09994847 10.7054812,6.29479699 10.8120812,6.53259776 C10.8101251,6.53315148 10.8081671,6.53370047 10.8062074,6.53424458 C10.8710121,6.67806858 10.9067316,6.83818488 10.9067316,7.00673648 C10.9067316,7.6010708 10.4632482,8.08987842 9.89377728,8.15241128 L9.873,8.153 C9.85885867,8.15596975 9.8413851,8.15722686 9.82374243,8.15802685 L9.76993512,8.15916968 L9.76993512,8.15916968 L9.64581652,8.15241128 C9.07671223,8.08987842 8.63322882,7.6010708 8.63322882,7.00673648 C8.63322882,6.94345124 8.63826434,6.88135516 8.6479508,6.82083765 C8.64981729,6.80937443 8.65190724,6.79707433 8.65415144,6.78488082 C8.65733717,6.76901321 8.6607634,6.75303167 8.66451295,6.73717741 C8.73748173,6.40637651 8.92715268,6.15891103 9.1800457,6.01137479 C9.14945234,5.94202246 9.13286012,5.8647799 9.13286012,5.78363047 C9.13286012,5.46546565 9.38718508,5.20809957 9.70058197,5.20809957 Z M4.38099672,4.5 C4.55821251,4.5 4.71062711,4.60514067 4.78187417,4.75690895 C5.02718052,4.75690895 5.22559006,4.95804762 5.22559006,5.20672817 C5.22559006,5.45540872 5.02718052,5.65700453 4.78187417,5.65700453 L4.78187417,5.65700453 L4.398,5.657 L4.50384252,5.66345958 C4.90676535,5.70703275 5.24640651,5.96285019 5.41290383,6.31848036 L5.45754885,6.42827993 C5.49903448,6.54896314 5.52248288,6.67878901 5.52248288,6.81410049 C5.52248288,7.45271579 5.01157831,7.97110502 4.38117709,7.97110502 L4.38117709,7.97110502 L4.25689055,7.96431113 C3.68495801,7.90145211 3.23951055,7.41014143 3.23951055,6.81410049 C3.23951055,6.67878901 3.26295895,6.54896314 3.30489552,6.42827993 L3.30489552,6.42827993 L3.34945896,6.31848036 C3.53266629,5.92728717 3.92566185,5.65686739 4.38117709,5.65686739 L4.363,5.657 L3.98102112,5.65700453 C3.76297104,5.65700453 3.58161893,5.49771895 3.54401044,5.28766586 L3.53685431,5.20672817 C3.53685431,4.95804762 3.73571478,4.75690895 3.98102112,4.75690895 C4.05226818,4.60514067 4.20423185,4.5 4.38099672,4.5 Z M15.7836381,5.66381582 C15.8365723,5.66381582 15.8888308,5.66751698 15.9399984,5.674678 C16.0097212,5.68436432 16.0775566,5.7005556 16.1427702,5.72258122 L16.2579453,5.76894359 C16.269863,5.77451347 16.2816694,5.78028656 16.2933603,5.78625846 C16.3150026,5.79707376 16.3362688,5.80880384 16.3571118,5.82118821 C16.4364365,5.86930082 16.5044972,5.92172876 16.5660232,5.98106538 C16.6729721,6.08363332 16.76,6.20723141 16.8210447,6.34520419 C16.8260984,6.35741395 16.8314057,6.36997003 16.8364976,6.3826379 C16.8618932,6.44514046 16.8817263,6.51046641 16.8957309,6.57796474 C16.8963346,6.58133661 16.8970285,6.58473535 16.8977077,6.58813947 C16.9123886,6.66169862 16.9200738,6.73806636 16.9200738,6.81624901 C16.9200738,6.83832429 16.919462,6.86025398 16.9182547,6.88202165 L16.9199837,6.81624901 C16.9199837,7.41058333 16.4765003,7.89939095 15.907396,7.96192381 L15.7837283,7.96868221 L15.7837283,7.96868221 C15.7466618,7.96868221 15.712391,7.96731081 15.6763166,7.96365374 C15.1002907,7.91063979 14.6469318,7.4174305 14.6469318,6.81624901 C14.6469318,6.37182832 14.8950412,5.98605153 15.2586864,5.79378301 C15.2642353,5.79235442 15.2695946,5.78956339 15.2749786,5.78681472 C15.3439907,5.75024472 15.4174127,5.72195635 15.493998,5.70156191 C15.501614,5.70070027 15.5086743,5.69889465 15.515761,5.69715671 C15.6013345,5.67500571 15.691236,5.66381582 15.7837283,5.66381582 L15.670567,5.66997361 C15.6702289,5.66990123 15.6698908,5.66982954 15.6695526,5.66975855 C15.7056271,5.66610148 15.7466618,5.66381582 15.7836381,5.66381582 Z"/>
</svg>
