<svg xmlns="http://www.w3.org/2000/svg" width="20" height="20" viewBox="0 0 20 20">
  <path fill-rule="evenodd" d="M12.9752615,4.5 C13.6526079,4.5 14.2882968,4.77068551 14.7565715,5.24184278 C15.1929496,5.67556013 15.4571605,6.25057501 15.4952262,6.86922379 L15.5,7.02473851 L15.5,12.9752615 C15.5,13.6526079 15.2293145,14.2882968 14.7581572,14.7565715 C14.3244399,15.1929496 13.749425,15.4571605 13.1307762,15.4952262 L12.9752615,15.5 L7.02473851,15.5 C6.34739206,15.5 5.71170324,15.2293145 5.24342854,14.7581572 C4.80705035,14.3244399 4.54283953,13.749425 4.50477383,13.1307762 L4.5,12.9752615 L4.5,7.02473851 C4.5,6.34739206 4.77068551,5.71170324 5.24184278,5.24342854 C5.67556013,4.80705035 6.25057501,4.54283953 6.86922379,4.50477383 L7.02473851,4.5 L12.9752615,4.5 Z M12.9752615,5.64547818 L7.02473851,5.64547818 C6.65626199,5.64547818 6.30877629,5.79278151 6.05078001,6.04881743 C5.82144801,6.27989197 5.67957886,6.58012352 5.65088364,6.90278171 L5.64547818,7.02473851 L5.64547818,12.9752615 C5.64547818,13.343738 5.79278151,13.6912237 6.04881743,13.94922 C6.27989197,14.178552 6.58012352,14.3204211 6.90278171,14.3491164 L7.02473851,14.3545218 L12.9752615,14.3545218 C13.343738,14.3545218 13.6912237,14.2072185 13.94922,13.9511826 C14.178552,13.720108 14.3204211,13.4198765 14.3491164,13.0972183 L14.3545218,12.9752615 L14.3545218,7.02473851 C14.3545218,6.65626199 14.2072185,6.30877629 13.9511826,6.05078001 C13.6912237,5.79278151 13.343738,5.64547818 12.9752615,5.64547818 Z M10,6.76713882 C11.7859002,6.76713882 13.2328612,8.21409977 13.2328612,10 C13.2328612,11.7859002 11.7859002,13.2328612 10,13.2328612 C8.21409977,13.2328612 6.76713882,11.7859002 6.76713882,10 C6.76713882,8.21409977 8.21409977,6.76713882 10,6.76713882 Z M10,7.91030734 C8.8469944,7.91030734 7.91030734,8.8469944 7.91030734,10 C7.91030734,11.1530056 8.8469944,12.0896927 10,12.0896927 C11.1530056,12.0896927 12.0896927,11.1530056 12.0896927,10 C12.0896927,8.8469944 11.1530056,7.91030734 10,7.91030734 Z M13.1377071,6.18279647 C13.4565992,6.18279647 13.7178029,6.44392819 13.7178029,6.76280669 C13.7178029,7.08394504 13.4568319,7.34290245 13.1377071,7.34290245 C12.8163548,7.34290245 12.5576969,7.08410086 12.5576969,6.76280669 C12.5576969,6.44376044 12.8165749,6.18279647 13.1377071,6.18279647 Z"/>
</svg>
