<svg xmlns="http://www.w3.org/2000/svg" width="20" height="20" viewBox="0 0 20 20">
  <path fill="#284528" d="M7.77747341,9.3728908 C7.78888687,9.37776926 7.80016658,9.38351398 7.81117879,9.39017056 C7.8183122,9.393818 8.49152815,9.77771123 9.07513058,9.56387997 C9.40728017,9.44077881 9.66185388,9.1371293 9.83171831,8.66022631 C9.88254388,8.51843201 10.0345748,8.44502725 10.1750139,8.4970033 C10.2738116,8.53416161 10.338904,8.62493731 10.3492475,8.72565229 C10.5190673,9.19106584 10.7711443,9.48792199 11.0986126,9.60929061 C11.5123952,9.76056825 11.9714304,9.61161586 12.2059414,9.51099206 C12.3071913,8.99528941 12.7847288,8.60382774 13.3565165,8.60382774 C13.7844322,8.60382774 14.1596052,8.82285661 14.3636654,9.14902908 C15.0872165,10.1467411 15.9488883,11.5245166 15.9579388,11.5386504 C16.0372981,11.665855 16.0011852,11.835461 15.8763504,11.9166166 C15.8317666,11.9457961 15.7818327,11.959474 15.7327905,11.959474 C15.6445145,11.959474 15.557576,11.9147929 15.5067504,11.8336373 C15.5004641,11.8230141 15.0482056,11.1000912 14.5283581,10.3290676 L14.5311223,11.4397136 C15.0524857,11.8167679 15.3936412,12.4382919 15.3936412,13.1399229 C15.3936412,13.2908358 15.2741565,13.4130251 15.1261382,13.4130251 L14.4885001,13.4130251 L14.4885001,15.2720349 C14.4885001,15.3978716 14.3886323,15.5 14.2655809,15.5 C14.1425296,15.5 14.0426618,15.3978716 14.0426618,15.2720349 L14.0426618,13.4130251 L12.6763901,13.4130251 L12.6763901,15.2720349 C12.6763901,15.3978716 12.5765223,15.5 12.4534709,15.5 C12.3304195,15.5 12.2305517,15.3978716 12.2305517,15.2720349 L12.2305517,13.4130251 L11.5928691,13.4130251 C11.4452966,13.4130251 11.325366,13.2908358 11.325366,13.1399229 C11.325366,12.4391126 11.665719,11.8181813 12.1861908,11.4409902 L12.1861908,10.1028806 C11.9915823,10.1669388 11.7480208,10.2220608 11.486492,10.2220608 C11.3019149,10.2220608 11.1079752,10.194705 10.9162647,10.1235799 C10.5710967,9.99582824 10.2886581,9.75090253 10.0727831,9.39354444 C9.8606978,9.7262823 9.58780013,9.95588875 9.25747848,10.0781692 C9.06576798,10.1492943 8.87182828,10.1766502 8.6872512,10.1766502 C8.3440894,10.1766502 8.03191337,10.0817255 7.82045223,9.99628417 L7.82544562,12.1788676 C7.8254902,12.1808737 7.82553478,12.1829254 7.82553478,12.1849315 L7.82553478,15.2264419 C7.82553478,15.3773548 7.70560426,15.5 7.55803176,15.5 C7.41045926,15.5 7.29052873,15.3773548 7.29052873,15.2264419 L7.29052873,12.4620915 L6.01364763,12.4620915 L6.01364763,14.0397923 C6.01364763,14.1501275 5.9494469,14.2495202 5.8495791,14.2919217 L4.68906181,14.7884297 C4.65562393,14.8025636 4.6204027,14.8098585 4.58607315,14.8098585 C4.48174697,14.8098585 4.38232501,14.7464842 4.33907869,14.6416202 C4.28201138,14.5021056 4.34665794,14.3420741 4.48308448,14.283715 L5.47908741,13.8574203 L5.47908741,12.193503 C5.47904283,12.1918616 5.47904283,12.1902203 5.47904283,12.1885334 L5.47904283,10.3181253 C4.95607442,11.0932978 4.4995805,11.8229685 4.4932496,11.8336373 C4.44242402,11.9147929 4.35548554,11.959474 4.26720954,11.959474 C4.21816732,11.959474 4.16823342,11.9457961 4.12364958,11.9166166 C3.99881484,11.835461 3.96270193,11.665855 4.04206116,11.5386504 C4.05088876,11.5249725 4.8603975,10.2304499 5.56887926,9.24263155 C5.74547584,8.841185 6.16340474,8.55841709 6.64936857,8.55841709 C7.18655922,8.55841709 7.64060103,8.90364744 7.77747341,9.3728908 Z M5.69407068,6.94077674 L5.70847126,6.51489234 C5.71292964,6.29011875 5.8297393,6.09361283 5.99871204,5.98829296 C6.00317042,5.77856506 6.1074966,5.57430833 6.28895282,5.46169357 C6.47085488,5.34907881 6.68351978,5.35591777 6.84937166,5.46078171 C7.01879024,5.35546184 7.23145515,5.34771102 7.40934466,5.45986985 C7.58634249,5.57202868 7.68264358,5.77582948 7.67863104,5.98555737 C7.84403708,6.09042132 7.95282164,6.28692724 7.94836326,6.51170083 C7.94573281,6.65832798 7.93592437,6.9338466 7.92941512,7.10764719 C7.92941512,7.1095621 7.92941512,7.11147701 7.92941512,7.11339191 C7.92941512,7.14589974 7.92807761,7.17808841 7.92549175,7.20986674 C7.92419882,7.24387914 7.92339631,7.26398566 7.92339631,7.26398566 L7.9198296,7.26398566 C7.8522405,7.7921808 7.43373202,8.20771558 6.91147695,8.25773113 L6.91165528,8.25777672 C6.87554237,8.26142416 6.84210449,8.26279195 6.80554575,8.26279195 L6.80545658,8.26279195 C6.23585347,8.26279195 5.76504815,7.82920233 5.69148482,7.26717717 L5.68305847,7.26717717 L5.68510933,7.2062649 C5.6827018,7.17567198 5.68149804,7.14466873 5.68149804,7.11339191 C5.68149804,7.0547137 5.68577808,6.99703853 5.69407068,6.94077674 Z M12.394531,6.51429963 L12.3906522,6.51429963 C12.5453582,6.06657617 12.9631087,5.74514538 13.4544226,5.74514538 C13.9461823,5.74514538 14.3634871,6.06657617 14.5186388,6.51429963 L14.51476,6.51429963 L14.5149829,6.51489234 C14.5561784,6.63448283 14.5786041,6.76305515 14.5786041,6.89696185 C14.5786041,7.49555261 14.1314728,7.9868174 13.5603984,8.04134665 L13.5603984,8.04134665 C13.5261134,8.04485731 13.4934335,8.0462707 13.4584352,8.04636188 L13.4542889,8.04636188 C13.1968172,8.04636188 12.9594528,7.95768346 12.7698824,7.80854869 C12.5028252,7.59845605 12.330687,7.26836259 12.330687,6.89696185 C12.330687,6.76278159 12.3532018,6.63398131 12.394531,6.51429963 Z M13.8506838,4.75623277 C13.7802413,4.60440802 13.6295479,4.5 13.4543334,4.5 C13.2800106,4.5 13.1293173,4.60440802 13.0588748,4.75623277 C12.8163387,4.75623277 12.619724,4.95684206 12.619724,5.20486809 C12.619724,5.45243819 12.8163387,5.65395934 13.0588748,5.65395934 L13.8506838,5.65395934 C14.0932198,5.65395934 14.2893887,5.45243819 14.2893887,5.20486809 C14.2893887,4.95684206 14.0932198,4.75623277 13.8506838,4.75623277 Z"/>
</svg>
