<svg xmlns="http://www.w3.org/2000/svg" width="20" height="20" viewBox="0 0 20 20">
  <path fill-rule="evenodd" d="M15.2107349,12.5598828 L13.2429175,10.5939254 C13.0901367,10.4406105 12.8205633,10.4406105 12.6664244,10.5939254 L11.635663,11.6250694 C11.2588035,12.002251 10.905031,12.0008942 9.90210954,11.0009559 L8.99900494,10.0993833 C8.67307245,9.77375887 8.32269503,9.39522047 8.19300106,9.06145544 C8.10744378,8.83962381 8.10608573,8.63678693 8.374301,8.36814678 L9.40709957,7.33632439 C9.56599166,7.17826087 9.56599166,6.92047487 9.4077786,6.76105458 L7.43928218,4.79034844 C7.25390808,4.60379278 7.00538456,4.50067838 6.74192247,4.5 C6.74192247,4.5 6.74192247,4.5 6.74124344,4.5 C6.47778135,4.5 6.23061588,4.6031144 6.04524177,4.78899167 L5.42189589,5.41174838 C4.68786877,6.14440333 4.01495399,7.41162504 4.97645483,9.28328708 C5.57399772,10.446716 6.58642551,11.4575085 7.2647725,12.1358927 L7.87250078,12.7423682 C8.83739675,13.7063521 10.6320625,15.5 12.4898777,15.5 C12.4905567,15.5 12.4919148,15.5 12.4925938,15.5 C13.2714366,15.4993216 13.9769446,15.1879433 14.5887471,14.5746839 L15.2107349,13.9519272 C15.3974671,13.7667283 15.5,13.5191181 15.5,13.255905 C15.5,12.992692 15.3974671,12.7450817 15.2107349,12.5598828"/>
</svg>
