<svg xmlns="http://www.w3.org/2000/svg" width="20" height="20" viewBox="0 0 20 20">
  <defs>
    <filter id="printer-a" color-interpolation-filters="auto">
      <feColorMatrix in="SourceGraphic" values="0 0 0 0 0.000000 0 0 0 0 0.000000 0 0 0 0 0.000000 0 0 0 1.000000 0"/>
    </filter>
  </defs>
  <g fill="none" fill-rule="evenodd" filter="url(#printer-a)">
    <g transform="translate(4.5 4.5)">
      <path fill="#143E26" d="M3.89864299 7.92230052L8.10135701 7.92230052C8.26771654 7.92230052 8.40241246 7.78776995 8.40241246 7.62223233 8.40241246 7.4566947 8.26771654 7.32266424 8.10135701 7.32266424L3.89864299 7.32266424C3.73228346 7.32266424 3.59758754 7.4566947 3.59758754 7.62223233 3.59758754 7.78776995 3.73228346 7.92230052 3.89864299 7.92230052M3.89864299 9.23459877L7.23990618 9.23459877C7.40626571 9.23459877 7.54096164 9.10056831 7.54096164 8.93453058 7.54096164 8.76899295 7.40626571 8.63496249 7.23990618 8.63496249L3.89864299 8.63496249C3.73228346 8.63496249 3.59758754 8.76899295 3.59758754 8.93453058 3.59758754 9.10056831 3.73228346 9.23459877 3.89864299 9.23459877"/>
      <path fill="#143E26" d="M2.9683364,10.4003637 L9.0316636,10.4003637 L9.0316636,6.15639918 L2.9683364,6.15639918 L2.9683364,10.4003637 Z M2.62606802,4.03691748 L1.63645502,4.03691748 C1.47009549,4.03691748 1.33539956,3.90238691 1.33539956,3.73684928 C1.33539956,3.57131166 1.47009549,3.4372812 1.63645502,3.4372812 L2.62606802,3.4372812 C2.79242754,3.4372812 2.92762607,3.57131166 2.92762607,3.73684928 C2.92762607,3.90238691 2.79242754,4.03691748 2.62606802,4.03691748 Z M2.9683364,2.06246874 L9.0316636,2.06246874 L9.0316636,0.599636281 L2.9683364,0.599636281 L2.9683364,2.06246874 Z M11.2712347,2.06246874 L9.6342771,2.06246874 L9.6342771,0.299568084 C9.6342771,0.134030461 9.49958117,0 9.33322165,0 L2.66677835,0 C2.50041883,0 2.3657229,0.134030461 2.3657229,0.299568084 L2.3657229,2.06246874 L0.728765287,2.06246874 C0.326687887,2.06246874 0,2.38754262 0,2.78763355 L0,6.89856786 C0,7.29865879 0.326687887,7.62323255 0.728765287,7.62323255 L2.3657229,7.62323255 L2.3657229,10.7004319 C2.3657229,10.8659695 2.50041883,11 2.66677835,11 L9.33322165,11 C9.49958117,11 9.6342771,10.8659695 9.6342771,10.7004319 L9.6342771,7.62323255 L11.2712347,7.62323255 C11.6733121,7.62323255 12,7.29865879 12,6.89856786 L12,2.78763355 C12,2.38754262 11.6733121,2.06246874 11.2712347,2.06246874 L11.2712347,2.06246874 Z"/>
    </g>
  </g>
</svg>
