<svg width="378" height="178" viewBox="0 0 378 178" version="1.1" xmlns="http://www.w3.org/2000/svg" xmlns:xlink="http://www.w3.org/1999/xlink" xml:space="preserve" xmlns:serif="http://www.serif.com/" style="fill-rule:evenodd;clip-rule:evenodd;stroke-linecap:round;stroke-linejoin:round;stroke-miterlimit:2;">
    <g transform="matrix(1,0,0,1,-2434,-11019)">
        <g id="Schlange" transform="matrix(1.13542,0,0,1.36418,-330.511,-4013.81)">
            <rect x="2434.8" y="11019.7" width="332.875" height="129.856" style="" fill="none"></rect>
            <g transform="matrix(3.66972,0,0,3.05434,2025.43,11043)">
                <path d="M179.861,8.28L175.712,13.201" style="" stroke="#314463" fill="none" stroke-width="1.2px"></path>
            </g>
            <g transform="matrix(3.66972,0,0,3.05434,2025.43,11043)">
                <path d="M183.331,15.041L183.331,21.712" style="" stroke="#314463" fill="none" stroke-width="1.2px"></path>
            </g>
            <g transform="matrix(3.66972,0,0,3.05434,2025.43,11043)">
                <path d="M179.267,15.041L179.267,21.712" style="" stroke="#314463" fill="none" stroke-width="1.2px"></path>
            </g>
            <g transform="matrix(3.66972,0,0,3.05434,2025.43,11043)">
                <path d="M183.318,9.573C183.318,8.924 182.945,8.356 182.384,8.03L181.279,11.462L180.177,8.041C179.629,8.37 179.267,8.933 179.267,9.573L179.267,15.098L183.332,15.098L183.318,9.573Z" style="fill-rule: nonzero;" fill="#314463"></path>
            </g>
            <g transform="matrix(3.66972,0,0,3.05434,2025.43,11043)">
                <path d="M183.318,9.573C183.318,8.924 182.945,8.356 182.384,8.03L181.279,11.462L180.177,8.041C179.629,8.37 179.267,8.933 179.267,9.573L179.267,15.098L183.332,15.098L183.318,9.573Z" style="" stroke="#314463" fill="none" stroke-width="1.2px"></path>
            </g>
            <g transform="matrix(3.66972,0,0,3.05434,2025.43,11043)">
                <path d="M187.337,7.135C187.337,7.135 186.357,10.582 182.5,8.03" style="" stroke="#314463" fill="none" stroke-width="1.2px"></path>
            </g>
            <g transform="matrix(3.66972,0,0,3.05434,2025.43,11043)">
                <path d="M182.384,8.03L181.279,11.564L181.299,11.564L181.279,11.564L180.177,8.041" style="" stroke="#B41630" fill="none" stroke-width="1.2px"></path>
            </g>
            <g transform="matrix(3.66972,0,0,3.05434,2025.43,11043)">
                <path d="M183.216,1.555C183.224,1.095 183.008,0.647 182.611,0.401C182.213,0.155 181.735,0.173 181.355,0.403C180.984,0.174 180.506,0.158 180.098,0.405C179.691,0.652 179.458,1.1 179.448,1.56C179.068,1.791 178.806,2.222 178.796,2.716L178.74,4.365L183.764,4.358C183.764,4.358 183.812,3.202 183.822,2.708C183.832,2.215 183.586,1.785 183.216,1.555Z" style="fill-rule: nonzero;" fill="#594A42"></path>
            </g>
            <g transform="matrix(3.66972,0,0,3.05434,2025.43,11043)">
                <path d="M183.778,4.028C183.778,5.42 182.649,6.548 181.257,6.548C179.865,6.548 178.736,5.42 178.736,4.028C178.736,2.636 179.865,1.507 181.257,1.507C182.649,1.507 183.778,2.636 183.778,4.028Z" style="fill-rule: nonzero;" fill="#F4DCD8"></path>
            </g>
            <g transform="matrix(3.66972,0,0,3.05434,2025.43,11043)">
                <path d="M183.778,4.028C183.778,5.42 182.649,6.548 181.257,6.548C179.865,6.548 178.736,5.42 178.736,4.028C178.736,2.636 179.865,1.507 181.257,1.507C182.649,1.507 183.778,2.636 183.778,4.028Z" style="fill-rule: nonzero;" fill="#F4DCD8"></path>
            </g>
            <g transform="matrix(3.66972,0,0,3.05434,2025.43,11043)">
                <path d="M180.436,4.028C180.436,2.718 180.917,1.642 181.51,1.519C181.43,1.512 181.339,1.507 181.257,1.507C179.865,1.507 178.736,2.635 178.736,4.028C178.736,5.42 179.865,6.548 181.257,6.548C181.339,6.548 181.415,6.545 181.495,6.537C180.9,6.415 180.436,5.338 180.436,4.028Z" style="fill-rule: nonzero;" fill="#F4BEB5"></path>
            </g>
            <g transform="matrix(3.66972,0,0,3.05434,2025.43,11043)">
                <path d="M199.326,26.516L129.1,26.516L126.23,15.248L199.326,15.248L199.326,26.516Z" style="fill-rule: nonzero;" fill="#084927"></path>
            </g>
            <g transform="matrix(3.66972,0,0,3.05434,2025.43,11043)">
                <path d="M122.542,27.019C122.211,27.019 121.943,26.751 121.943,26.42L121.943,19.748C121.943,19.417 122.211,19.148 122.542,19.148C122.874,19.148 123.142,19.417 123.142,19.748L123.142,26.42C123.142,26.751 122.874,27.019 122.542,27.019Z" style="fill-rule: nonzero;" fill="#0093D0"></path>
            </g>
            <g transform="matrix(3.66972,0,0,3.05434,2025.43,11043)">
                <path d="M118.479,25.492C118.148,25.492 117.879,25.223 117.879,24.892L117.879,19.748C117.879,19.417 118.148,19.148 118.479,19.148C118.81,19.148 119.079,19.417 119.079,19.748L119.079,24.892C119.079,25.223 118.81,25.492 118.479,25.492Z" style="fill-rule: nonzero;" fill="#0093D0"></path>
            </g>
            <g transform="matrix(3.66972,0,0,3.05434,2025.43,11043)">
                <path d="M122.53,14.219C122.53,13.204 121.623,12.382 120.504,12.382C119.385,12.382 118.479,13.204 118.479,14.219L118.479,19.743L122.542,19.743L122.53,14.219Z" style="fill-rule: nonzero;" fill="#60B5C6"></path>
            </g>
            <g transform="matrix(3.66972,0,0,3.05434,2025.43,11043)">
                <path d="M123.129,14.219L123.14,14.219L123.129,14.219ZM119.079,19.144L121.941,19.144L121.93,14.22L121.93,14.219C121.93,13.537 121.291,12.981 120.504,12.981C119.718,12.981 119.079,13.537 119.079,14.219L119.079,19.144ZM122.542,20.344L118.479,20.344C118.148,20.344 117.879,20.075 117.879,19.744L117.879,14.219C117.879,12.875 119.057,11.782 120.504,11.782C121.952,11.782 123.129,12.874 123.129,14.218L123.142,19.743C123.143,19.902 123.08,20.055 122.967,20.168C122.855,20.28 122.702,20.344 122.542,20.344Z" style="fill-rule: nonzero;" fill="#60B5C6"></path>
            </g>
            <g transform="matrix(3.66972,0,0,3.05434,2025.43,11043)">
                <path d="M124.006,16.612C123.592,16.612 123.159,16.553 122.728,16.396C121.634,16 120.822,15.093 120.313,13.699C120.199,13.388 120.36,13.043 120.67,12.93C120.985,12.814 121.326,12.975 121.44,13.287C121.821,14.329 122.389,14.995 123.131,15.266C124.447,15.748 125.959,14.896 125.973,14.887C126.263,14.721 126.627,14.82 126.792,15.107C126.958,15.393 126.86,15.76 126.574,15.925C126.512,15.961 125.369,16.612 124.006,16.612Z" style="fill-rule: nonzero;" fill="#60B5C6"></path>
            </g>
            <g transform="matrix(3.66972,0,0,3.05434,2025.43,11043)">
                <path d="M118.335,12.735C118.335,11.921 117.608,11.262 116.71,11.262C115.813,11.262 115.085,11.921 115.085,12.735L115.085,17.168L118.346,17.168L118.335,12.735Z" style="fill-rule: nonzero;" fill="#FDB812"></path>
            </g>
            <g transform="matrix(3.66972,0,0,3.05434,2025.43,11043)">
                <path d="M118.935,12.735L118.946,12.735L118.935,12.735ZM115.685,16.568L117.745,16.568L117.736,12.736L117.736,12.735C117.736,12.254 117.276,11.861 116.71,11.861C116.145,11.861 115.685,12.254 115.685,12.735L115.685,16.568ZM118.346,17.767L115.085,17.767C114.754,17.767 114.486,17.499 114.486,17.168L114.486,12.735C114.486,11.592 115.484,10.662 116.71,10.662C117.937,10.662 118.935,11.591 118.935,12.734L118.946,17.167C118.947,17.326 118.883,17.478 118.771,17.592C118.659,17.704 118.505,17.767 118.346,17.767Z" style="fill-rule: nonzero;" fill="#FDB812"></path>
            </g>
            <g transform="matrix(3.66972,0,0,3.05434,2025.43,11043)">
                <path d="M123.032,8.047C123.032,9.439 121.903,10.568 120.51,10.568C119.119,10.568 117.99,9.439 117.99,8.047C117.99,6.655 119.119,5.526 120.51,5.526C121.903,5.526 123.032,6.655 123.032,8.047Z" style="fill-rule: nonzero;" fill="#F4DCD8"></path>
            </g>
            <g transform="matrix(3.66972,0,0,3.05434,2025.43,11043)">
                <path d="M123.032,8.047C123.032,9.439 121.903,10.568 120.51,10.568C119.119,10.568 117.99,9.439 117.99,8.047C117.99,6.655 119.119,5.526 120.51,5.526C121.903,5.526 123.032,6.655 123.032,8.047Z" style="fill-rule: nonzero;" fill="#F4DCD8"></path>
            </g>
            <g transform="matrix(3.66972,0,0,3.05434,2025.43,11043)">
                <path d="M119.69,8.047C119.69,6.737 120.169,5.662 120.763,5.539C120.683,5.532 120.592,5.526 120.51,5.526C119.119,5.526 117.99,6.655 117.99,8.047C117.99,9.439 119.119,10.568 120.51,10.568C120.592,10.568 120.667,10.565 120.748,10.557C120.154,10.434 119.69,9.357 119.69,8.047Z" style="fill-rule: nonzero;" fill="#F4BEB5"></path>
            </g>
            <g transform="matrix(3.66972,0,0,3.05434,2025.43,11043)">
                <path d="M122.803,7.01C122.41,6.143 121.544,5.537 120.533,5.529C120.661,6.406 121.409,7.083 122.322,7.083C122.49,7.083 122.649,7.053 122.803,7.01Z" style="fill-rule: nonzero;" fill="#594A42"></path>
            </g>
            <g transform="matrix(3.66972,0,0,3.05434,2025.43,11043)">
                <path d="M118.713,7.629C119.983,7.629 121.067,6.847 121.518,5.739C121.209,5.603 120.87,5.526 120.51,5.526C119.29,5.526 118.272,6.395 118.04,7.548C118.257,7.598 118.481,7.629 118.713,7.629Z" style="fill-rule: nonzero;" fill="#594A42"></path>
            </g>
            <g transform="matrix(3.66972,0,0,3.05434,2025.43,11043)">
                <path d="M137.798,11.46C137.798,10.341 136.798,9.434 135.565,9.434C134.332,9.434 133.332,10.341 133.332,11.46L133.332,17.553L137.812,17.553L137.798,11.46Z" style="fill-rule: nonzero;" fill="#F58345"></path>
            </g>
            <g transform="matrix(3.66972,0,0,3.05434,2025.43,11043)">
                <path d="M138.398,11.46L138.409,11.46L138.398,11.46ZM133.93,16.953L137.21,16.953L137.199,11.461L137.199,11.46C137.199,10.674 136.465,10.033 135.565,10.033C134.664,10.033 133.93,10.674 133.93,11.46L133.93,16.953ZM137.812,18.152L133.331,18.152C133,18.152 132.731,17.884 132.731,17.553L132.731,11.46C132.731,10.012 134.002,8.834 135.565,8.834C137.126,8.834 138.398,10.011 138.398,11.459L138.412,17.552C138.413,17.711 138.349,17.863 138.237,17.976C138.125,18.089 137.971,18.152 137.812,18.152Z" style="fill-rule: nonzero;" fill="#F58345"></path>
            </g>
            <g transform="matrix(3.66972,0,0,3.05434,2025.43,11043)">
                <path d="M142.426,27.019C142.095,27.019 141.827,26.751 141.827,26.42L141.827,12.707C141.827,12.376 142.095,12.107 142.426,12.107C142.757,12.107 143.026,12.376 143.026,12.707L143.026,26.42C143.026,26.751 142.757,27.019 142.426,27.019Z" style="fill-rule: nonzero;" fill="#716558"></path>
            </g>
            <g transform="matrix(3.66972,0,0,3.05434,2025.43,11043)">
                <path d="M140.161,16.613C139.747,16.613 139.312,16.553 138.881,16.396C137.788,16 136.975,15.093 136.466,13.699C136.352,13.388 136.513,13.043 136.824,12.93C137.138,12.812 137.48,12.976 137.593,13.287C137.974,14.329 138.542,14.995 139.285,15.266C140.601,15.747 142.112,14.896 142.126,14.888C142.417,14.72 142.781,14.822 142.946,15.108C143.111,15.394 143.013,15.761 142.727,15.927C142.666,15.962 141.523,16.613 140.161,16.613Z" style="fill-rule: nonzero;" fill="#0093D0"></path>
            </g>
            <g transform="matrix(3.66972,0,0,3.05434,2025.43,11043)">
                <path d="M138.696,27.007C138.365,27.007 138.096,26.738 138.096,26.407L138.096,19.735C138.096,19.404 138.365,19.136 138.696,19.136C139.027,19.136 139.295,19.404 139.295,19.735L139.295,26.407C139.295,26.738 139.027,27.007 138.696,27.007Z" style="fill-rule: nonzero;" fill="#0093D0"></path>
            </g>
            <g transform="matrix(3.66972,0,0,3.05434,2025.43,11043)">
                <path d="M132.03,25.493C131.795,25.493 131.573,25.354 131.476,25.124C131.348,24.818 131.493,24.467 131.798,24.339L134.033,23.405L134.033,19.749C134.033,19.418 134.301,19.149 134.632,19.149C134.963,19.149 135.232,19.418 135.232,19.749L135.232,23.805C135.232,24.047 135.087,24.264 134.864,24.358L132.261,25.446C132.186,25.477 132.107,25.493 132.03,25.493Z" style="fill-rule: nonzero;" fill="#0093D0"></path>
            </g>
            <g transform="matrix(3.66972,0,0,3.05434,2025.43,11043)">
                <path d="M138.683,14.219C138.683,13.204 137.777,12.382 136.658,12.382C135.54,12.382 134.632,13.204 134.632,14.219L134.632,19.744L138.696,19.744L138.683,14.219Z" style="fill-rule: nonzero;" fill="#60B5C6"></path>
            </g>
            <g transform="matrix(3.66972,0,0,3.05434,2025.43,11043)">
                <path d="M139.283,14.219L139.293,14.219L139.283,14.219ZM135.232,19.144L138.094,19.144L138.083,14.22L138.083,14.219C138.083,13.537 137.444,12.981 136.658,12.981C135.872,12.981 135.232,13.537 135.232,14.219L135.232,19.144ZM138.696,20.344L134.632,20.344C134.301,20.344 134.033,20.075 134.033,19.744L134.033,14.219C134.033,12.875 135.21,11.782 136.658,11.782C138.105,11.782 139.283,12.874 139.283,14.218L139.295,19.743C139.296,19.902 139.233,20.055 139.121,20.168C139.008,20.28 138.855,20.344 138.696,20.344Z" style="fill-rule: nonzero;" fill="#60B5C6"></path>
            </g>
            <g transform="matrix(3.66972,0,0,3.05434,2025.43,11043)">
                <path d="M137.03,6.625L137.03,11.124C138.428,11.124 139.561,9.991 139.561,8.593C139.561,8.297 139.51,8.014 139.417,7.749L137.03,6.625Z" style="fill-rule: nonzero;" fill="#F4BEB5"></path>
            </g>
            <g transform="matrix(3.66972,0,0,3.05434,2025.43,11043)">
                <path d="M137.03,6.062L137.826,7.749L139.417,7.749C139.069,6.766 138.132,6.062 137.03,6.062Z" style="fill-rule: nonzero;" fill="#F7B273"></path>
            </g>
            <g transform="matrix(3.66972,0,0,3.05434,2025.43,11043)">
                <path d="M134.644,7.749C134.55,8.014 134.499,8.297 134.499,8.593C134.499,9.991 135.632,11.124 137.03,11.124C137.496,11.124 137.874,9.991 137.874,8.593C137.874,8.297 137.857,8.014 137.826,7.749L137.03,6.625L134.644,7.749Z" style="fill-rule: nonzero;" fill="#F4DCD8"></path>
            </g>
            <g transform="matrix(3.66972,0,0,3.05434,2025.43,11043)">
                <path d="M137.03,6.062C135.928,6.062 134.991,6.766 134.644,7.749L137.826,7.749C137.709,6.766 137.397,6.062 137.03,6.062Z" style="fill-rule: nonzero;" fill="#F9CD81"></path>
            </g>
            <g transform="matrix(3.66972,0,0,3.05434,2025.43,11043)">
                <path d="M137.918,4.094C137.76,3.761 137.422,3.531 137.031,3.531C136.638,3.531 136.3,3.761 136.142,4.094C135.598,4.094 135.158,4.534 135.158,5.078C135.158,5.621 135.598,6.062 136.142,6.062L137.918,6.062C138.462,6.062 138.903,5.621 138.903,5.078C138.903,4.534 138.462,4.094 137.918,4.094Z" style="fill-rule: nonzero;" fill="#F9CD81"></path>
            </g>
            <g transform="matrix(3.66972,0,0,3.05434,2025.43,11043)">
                <path d="M132.461,15.331C132.047,15.331 131.614,15.271 131.183,15.115C130.089,14.719 129.276,13.811 128.768,12.418C128.654,12.106 128.815,11.762 129.125,11.648C129.44,11.531 129.782,11.694 129.895,12.006C130.276,13.048 130.843,13.714 131.586,13.985C132.903,14.467 134.414,13.614 134.428,13.605C134.719,13.44 135.083,13.54 135.248,13.826C135.413,14.112 135.315,14.478 135.029,14.643C134.967,14.68 133.824,15.331 132.461,15.331Z" style="fill-rule: nonzero;" fill="#0093D0"></path>
            </g>
            <g transform="matrix(3.66972,0,0,3.05434,2025.43,11043)">
                <path d="M157.316,26.585C156.985,26.585 156.716,26.316 156.716,25.985L156.716,12.272C156.716,11.941 156.985,11.673 157.316,11.673C157.647,11.673 157.916,11.941 157.916,12.272L157.916,25.985C157.916,26.316 157.647,26.585 157.316,26.585Z" style="fill-rule: nonzero;" fill="#716558"></path>
            </g>
            <g transform="matrix(3.66972,0,0,3.05434,2025.43,11043)">
                <path d="M155.092,18.719C153.725,18.719 152.374,18.209 151.335,17.23C151.095,17.003 151.083,16.623 151.311,16.382C151.539,16.14 151.917,16.13 152.16,16.357C153.474,17.597 155.439,17.873 157.042,17.048C157.333,16.892 157.697,17.011 157.849,17.306C158.001,17.601 157.885,17.963 157.59,18.114C156.8,18.52 155.944,18.719 155.092,18.719Z" style="fill-rule: nonzero;" fill="#B3D334"></path>
            </g>
            <g transform="matrix(3.66972,0,0,3.05434,2025.43,11043)">
                <path d="M152.708,27.019C152.376,27.019 152.108,26.751 152.108,26.42L152.108,22.416C152.108,22.085 152.376,21.816 152.708,21.816C153.039,21.816 153.307,22.085 153.307,22.416L153.307,26.42C153.307,26.751 153.039,27.019 152.708,27.019Z" style="fill-rule: nonzero;" fill="#F26521"></path>
            </g>
            <g transform="matrix(3.66972,0,0,3.05434,2025.43,11043)">
                <path d="M148.644,27.019C148.313,27.019 148.044,26.751 148.044,26.42L148.044,22.416C148.044,22.085 148.313,21.816 148.644,21.816C148.975,21.816 149.244,22.085 149.244,22.416L149.244,26.42C149.244,26.751 148.975,27.019 148.644,27.019Z" style="fill-rule: nonzero;" fill="#F26521"></path>
            </g>
            <g transform="matrix(3.66972,0,0,3.05434,2025.43,11043)">
                <path d="M152.695,18.219C152.695,17.204 151.788,16.382 150.669,16.382C149.55,16.382 148.644,17.204 148.644,18.219L148.644,22.412L152.708,22.412L152.695,18.219Z" style="fill-rule: nonzero;" fill="#B3D334"></path>
            </g>
            <g transform="matrix(3.66972,0,0,3.05434,2025.43,11043)">
                <path d="M153.294,18.219L153.305,18.219L153.294,18.219ZM149.244,21.812L152.106,21.812L152.095,18.221L152.095,18.219C152.095,17.537 151.456,16.981 150.669,16.981C149.883,16.981 149.244,17.537 149.244,18.219L149.244,21.812ZM152.708,23.012L148.644,23.012C148.313,23.012 148.044,22.743 148.044,22.412L148.044,18.219C148.044,16.875 149.222,15.782 150.669,15.782C152.117,15.782 153.293,16.874 153.294,18.217L153.307,22.41C153.308,22.569 153.245,22.722 153.132,22.836C153.02,22.948 152.867,23.012 152.708,23.012Z" style="fill-rule: nonzero;" fill="#B3D334"></path>
            </g>
            <g transform="matrix(3.66972,0,0,3.05434,2025.43,11043)">
                <path d="M153.269,12.473C153.269,13.865 152.14,14.994 150.748,14.994C149.356,14.994 148.227,13.865 148.227,12.473C148.227,11.081 149.356,9.952 150.748,9.952C152.14,9.952 153.269,11.081 153.269,12.473Z" style="fill-rule: nonzero;" fill="#F4DCD8"></path>
            </g>
            <g transform="matrix(3.66972,0,0,3.05434,2025.43,11043)">
                <path d="M153.269,12.473C153.269,13.865 152.14,14.994 150.748,14.994C149.356,14.994 148.227,13.865 148.227,12.473C148.227,11.081 149.356,9.952 150.748,9.952C152.14,9.952 153.269,11.081 153.269,12.473Z" style="fill-rule: nonzero;" fill="#F4DCD8"></path>
            </g>
            <g transform="matrix(3.66972,0,0,3.05434,2025.43,11043)">
                <path d="M149.927,12.473C149.927,11.163 150.407,10.088 151,9.965C150.92,9.957 150.83,9.952 150.748,9.952C149.356,9.952 148.227,11.081 148.227,12.473C148.227,13.865 149.356,14.994 150.748,14.994C150.83,14.994 150.905,14.991 150.985,14.983C150.391,14.86 149.927,13.783 149.927,12.473Z" style="fill-rule: nonzero;" fill="#F4BEB5"></path>
            </g>
            <g transform="matrix(3.66972,0,0,3.05434,2025.43,11043)">
                <path d="M153.058,11.436C152.666,10.569 151.8,9.963 150.789,9.954C150.917,10.832 151.665,11.509 152.578,11.509C152.745,11.509 152.905,11.478 153.058,11.436Z" style="fill-rule: nonzero;" fill="#71625A"></path>
            </g>
            <g transform="matrix(3.66972,0,0,3.05434,2025.43,11043)">
                <path d="M148.294,12.659C149.929,12.659 151.325,11.652 151.905,10.225C151.474,10.003 151.084,9.938 150.609,9.952C149.037,10 147.726,11.071 147.428,12.555C147.708,12.618 147.996,12.659 148.294,12.659Z" style="fill-rule: nonzero;" fill="#594A42"></path>
            </g>
            <g transform="matrix(3.66972,0,0,3.05434,2025.43,11043)">
                <path d="M148.589,16.64C148.589,15.826 147.863,15.166 146.965,15.166C146.068,15.166 145.34,15.826 145.34,16.64L145.34,21.073L148.6,21.073L148.589,16.64Z" style="fill-rule: nonzero;" fill="#FDB812"></path>
            </g>
            <g transform="matrix(3.66972,0,0,3.05434,2025.43,11043)">
                <path d="M149.189,16.64L149.2,16.64L149.189,16.64ZM145.939,20.473L147.999,20.473L147.99,16.641L147.99,16.64C147.99,16.158 147.53,15.765 146.964,15.765C146.399,15.765 145.939,16.158 145.939,16.64L145.939,20.473ZM148.6,21.673L145.339,21.673C145.008,21.673 144.74,21.404 144.74,21.073L144.74,16.64C144.74,15.497 145.738,14.566 146.964,14.566C148.191,14.566 149.189,15.496 149.189,16.639L149.2,21.072C149.201,21.231 149.137,21.384 149.025,21.497C148.913,21.609 148.759,21.673 148.6,21.673Z" style="fill-rule: nonzero;" fill="#FDB812"></path>
            </g>
        </g>
    </g>
</svg>