<svg xmlns="http://www.w3.org/2000/svg" width="20" height="20" viewBox="0 0 20 20">
  <path fill-rule="evenodd" d="M9.95997103,10.5719103 C10.0667148,10.5729778 10.1558459,10.6284876 10.2134875,10.7090834 L10.2134875,10.7090834 L12.153022,12.6738076 C12.2773785,12.7997719 12.2757774,13.002596 12.1503534,13.1269591 C12.0879083,13.18834 12.0062493,13.2192974 11.9251241,13.2192974 C11.8423976,13.2192974 11.7602049,13.1872726 11.6972261,13.1242904 L11.6972261,13.1242904 L10.2705954,11.6789024 L10.2609885,12.8168519 L11.5771393,14.1506866 C11.7014958,14.2761172 11.6998947,14.4789412 11.5744707,14.6027706 C11.5120256,14.6646853 11.4303666,14.6951089 11.3492414,14.6951089 C11.2665149,14.6951089 11.1837885,14.6636178 11.1213434,14.6001019 L11.1213434,14.6001019 L10.2535164,13.7199524 L10.2407072,15.1824203 C10.239106,15.3585569 10.0960694,15.5 9.92047583,15.5 L9.92047583,15.5 C9.74061256,15.4983988 9.59917705,15.354287 9.60077821,15.1770828 L9.60077821,15.1770828 L9.61305374,13.70821 L8.72654664,14.5867582 C8.66410152,14.6486729 8.58190881,14.6796303 8.50078354,14.6796303 C8.41859083,14.6796303 8.33586439,14.6481392 8.27341928,14.585157 C8.14906278,14.4597263 8.1495965,14.2569023 8.27502044,14.1325392 L8.27502044,14.1325392 L9.62105953,12.7987044 L9.63120019,11.6532825 L8.1666755,13.1050755 C8.10423039,13.1669901 8.02203768,13.1979475 7.9409124,13.1979475 C7.85871969,13.1979475 7.77652698,13.1664564 7.71354815,13.1034742 C7.58919164,12.9780436 7.58972536,12.7752196 7.7151493,12.6503227 L7.7151493,12.6503227 L9.71819637,10.6647824 L9.71819637,10.6647824 C9.72406728,10.6594449 9.73100562,10.6573099 9.73634281,10.6525062 C9.79932164,10.598064 9.87671088,10.5708428 9.95463384,10.5735116 C9.956235,10.5735116 9.95783616,10.5724441 9.95997103,10.5719103 Z M6.87240715,7.84926488 C6.99676365,7.72383425 7.19957684,7.722233 7.3255345,7.84659615 L7.3255345,7.84659615 L9.29068752,9.78570042 C9.37074536,9.84334514 9.42678584,9.93194721 9.42731956,10.0381629 C9.42731956,10.0408317 9.42625212,10.0424329 9.42625212,10.0451017 C9.42892072,10.1294337 9.39956618,10.2148333 9.33498619,10.2799505 L9.33498619,10.2799505 L7.35061929,12.284172 C7.28764046,12.3476879 7.20491403,12.3786453 7.12272132,12.3786453 C7.04159604,12.3786453 6.95940333,12.3482217 6.89749194,12.2868407 C6.77206799,12.1619438 6.77100056,11.9591198 6.89482334,11.8336892 L6.89482334,11.8336892 L8.34653877,10.3680188 L7.20171171,10.3786938 L5.86794816,11.7248047 C5.80496933,11.7883206 5.72277662,11.8198117 5.64058391,11.8198117 C5.55892491,11.8198117 5.47726592,11.7888544 5.41535453,11.7274734 C5.28939687,11.6025765 5.28832943,11.3997525 5.41268593,11.2743219 L5.41268593,11.2743219 L6.29225469,10.3867 L4.82292654,10.4000437 L4.82292654,10.4000437 C4.64413071,10.4000437 4.50162776,10.2586006 4.50001319,10.0829977 C4.49842544,9.90579359 4.64039467,9.76168179 4.81705563,9.76008055 L4.81705563,9.76008055 L6.27944544,9.74673686 L5.39934296,8.87832986 C5.2733853,8.75450046 5.27178414,8.55167645 5.39667437,8.42571207 C5.52049715,8.29974768 5.72384406,8.29814644 5.84873428,8.42304333 L5.84873428,8.42304333 L7.18249783,9.73873065 L8.32092027,9.72858945 L6.87507574,8.30188267 C6.7496518,8.17805328 6.74805064,7.97522927 6.87240715,7.84926488 Z M12.650448,7.71582804 C12.7748046,7.5893299 12.9781515,7.58826241 13.1030417,7.71369305 C13.2284656,7.83752244 13.2295331,8.04034645 13.1051766,8.16577709 L13.1051766,8.16577709 L11.6534611,9.63091368 L12.7993556,9.62077248 L14.1331192,8.27466156 C14.256942,8.14816342 14.4602889,8.14816342 14.5851791,8.27252657 C14.7111368,8.39688971 14.7122042,8.59971372 14.587314,8.72514435 L14.587314,8.72514435 L13.7077452,9.61276627 L15.1776071,9.59995633 L15.1776071,9.59995633 C15.3558692,9.59995633 15.4983721,9.74086564 15.4999868,9.91753603 C15.5015745,10.0942064 15.3601389,10.2383182 15.1824106,10.2399195 L15.1824106,10.2399195 L13.7205545,10.2527294 L14.6006569,11.1211364 C14.7266146,11.2449658 14.7282158,11.4477898 14.6038593,11.5737542 C14.5408804,11.6372701 14.4586877,11.6687612 14.3759613,11.6687612 C14.2943023,11.6687612 14.213177,11.6383376 14.1512656,11.5769567 L14.1512656,11.5769567 L12.8175021,10.2607356 L11.6796134,10.2708768 L13.1249242,11.6975836 C13.2503481,11.821413 13.2519493,12.024237 13.1275928,12.1507351 C13.0651476,12.2137173 12.9824212,12.2452084 12.8996948,12.2452084 C12.8185695,12.2452084 12.7374442,12.2147848 12.6744654,12.1534039 L12.6744654,12.1534039 L10.7093124,10.2132321 C10.6292545,10.1555874 10.5737478,10.0664516 10.5726803,9.96076957 C10.5726803,9.95810083 10.5737478,9.95649959 10.5737478,9.95383085 C10.5710792,9.86949876 10.6009674,9.78409918 10.6650137,9.718982 L10.6650137,9.718982 L10.6666149,9.7179145 Z M10.0827264,4.5 C10.2599211,4.50160124 10.4013566,4.64624679 10.4002891,4.82291717 L10.4002891,4.82291717 L10.3874799,6.29178999 L11.273987,5.41270804 C11.3999446,5.2872774 11.6027578,5.28887865 11.7271143,5.41430928 C11.8514708,5.53973992 11.8509371,5.74256393 11.7255132,5.86746082 L11.7255132,5.86746082 L10.3789404,7.2018293 L10.3693334,8.34618371 L11.8333244,6.89492455 C11.9592821,6.77002766 12.1615615,6.77109515 12.2864518,6.89652579 C12.4108083,7.02249017 12.4102745,7.22584793 12.2848506,7.34967733 L12.2848506,7.34967733 L10.2818035,9.33521762 L10.2818035,9.33521762 L10.2493801,9.35956985 L10.2493801,9.35956985 L10.2150887,9.37898491 C10.2017457,9.38645737 10.1900039,9.39873356 10.1755935,9.40460478 C10.1371657,9.42008346 10.0966031,9.42808967 10.0560404,9.42808967 C10.0539056,9.42808967 10.0517707,9.42648843 10.0491021,9.42648843 C10.0469672,9.42648843 10.0448323,9.42808967 10.0426975,9.42808967 L10.0426975,9.42808967 C9.93381881,9.42702217 9.84468775,9.3709787 9.78704611,9.29091659 L9.78704611,9.29091659 L7.84697787,7.32565869 C7.72262137,7.19969431 7.72422253,6.9968703 7.84964647,6.87250716 C7.97667157,6.74921151 8.17948475,6.75081275 8.30277382,6.87517589 L8.30277382,6.87517589 L9.72940446,8.32056383 L9.73954512,7.18314814 L8.42286058,5.84931341 C8.29850407,5.72334902 8.30010523,5.52052501 8.42552917,5.39669562 C8.55255427,5.27233248 8.75536746,5.27446747 8.87865652,5.39936436 L8.87865652,5.39936436 L9.74701719,6.2795138 L9.75982644,4.8175797 C9.7614276,4.64144306 9.90446427,4.5 10.0800578,4.5 L10.0800578,4.5 Z"/>
</svg>
