<svg xmlns="http://www.w3.org/2000/svg" width="20" height="20" viewBox="0 0 20 20">
  <defs>
    <filter id="speech-bubbles-a" color-interpolation-filters="auto">
      <feColorMatrix in="SourceGraphic" values="0 0 0 0 0.000000 0 0 0 0 0.000000 0 0 0 0 0.000000 0 0 0 1.000000 0"/>
    </filter>
  </defs>
  <g fill="none" fill-rule="evenodd" filter="url(#speech-bubbles-a)">
    <path fill="#143E26" d="M16.7048749 1.90198162C16.5134809 1.71288367 16.260145 1.6090517 15.9914975 1.6090517 15.9908015 1.6090517 15.9894096 1.6090517 15.9880176 1.6090517L10.0408866 1.6090517C10.0401907 1.6090517 10.0394947 1.6090517 10.0387987 1.6090517 9.76806331 1.60973933 9.51472736 1.71494655 9.3247254 1.90541977 9.13472344 2.09520535 9.03171871 2.34687754 9.03444763 2.61230231L9.06094978 8.7349503C9.06094978 8.90479465 9.16673842 9.05607301 9.32542138 9.11727199 9.37553178 9.1365256 9.42703415 9.14546477 9.47784053 9.14546477 9.59128493 9.14546477 9.70264139 9.10008127 9.7840708 9.01412765L12.105853 6.54691505 15.9921935 6.55172845C16.543408 6.55104082 16.9957936 6.10683253 17 5.55879227L17 2.61298994C17.0020574 2.34412702 16.8969647 2.09176721 16.7048749 1.90198162M7.60078819.300493843C7.41078622.110020629 7.15745028.00550103144 6.88880281.00481340251 6.88741086.00481340251 6.8860189.00481340251 6.8860189.00481340251L1.01405351 0C1.01196558 0 1.01057363 0 1.00918167 0 .73983823 0 .485806303.103831968.295108363.292242295.103018468.481340251-.0013782142.733700069 0 .999812465L.00766949826 7.40782647C.0097574319 7.95311621.460055121 8.39869976 1.01405351 8.40076264L3.9441204 8.40076264 7.2353998 10.9140464C7.31056541 10.9711196 7.40104253 11 7.49151966 11 7.55346169 11 7.61679568 10.9869351 7.67525782 10.9580546 7.81862926 10.8886041 7.90910639 10.7448897 7.9084144 10.5874226L7.8930989 1.00668875C7.89449085.739888729 7.79009417.48890417 7.60078819.300493843" transform="translate(1.5 4.5)"/>
  </g>
</svg>
