<svg xmlns="http://www.w3.org/2000/svg" width="20" height="20" viewBox="0 0 20 20">
  <path fill-rule="evenodd" d="M10,1 C14.9705627,1 19,5.02943725 19,10 C19,14.9705627 14.9705627,19 10,19 C5.02943725,19 1,14.9705627 1,10 C1,5.02943725 5.02943725,1 10,1 Z M11.014903,11.9707233 C10.4363539,11.9707233 9.96560561,12.425751 9.96560561,12.9850995 C9.96560561,13.5449723 10.4363539,14 11.014903,14 C11.5929104,14 12.0636586,13.5449723 12.0636586,12.9850995 C12.0636586,12.425751 11.5929104,11.9707233 11.014903,11.9707233 Z M8.79464934,11.9707233 C8.21664196,11.9707233 7.74589368,12.425751 7.74589368,12.9850995 C7.74589368,13.5449723 8.21664196,14 8.79464934,14 C9.37319844,14 9.84394672,13.5449723 9.84394672,12.9850995 C9.84394672,12.425751 9.37319844,11.9707233 8.79464934,11.9707233 Z M11.014903,12.5992696 C11.2348383,12.5992696 11.4136035,12.772264 11.4136035,12.9850995 C11.4136035,13.1984593 11.2348383,13.3714537 11.014903,13.3714537 C10.7949676,13.3714537 10.6156608,13.1984593 10.6156608,12.9850995 C10.6156608,12.772264 10.7949676,12.5992696 11.014903,12.5992696 Z M8.79464934,12.5992696 C9.01458467,12.5992696 9.19389155,12.772264 9.19389155,12.9850995 C9.19389155,13.1984593 9.01458467,13.3714537 8.79464934,13.3714537 C8.57471401,13.3714537 8.39594884,13.1984593 8.39594884,12.9850995 C8.39594884,12.772264 8.57471401,12.5992696 8.79464934,12.5992696 Z M11.3887341,6.03853057 C11.305852,5.99449563 11.2083437,5.98820493 11.1195029,6.01965845 C11.0312037,6.05216043 10.9618645,6.11926129 10.92882,6.20471004 L10.92882,6.20471004 L9.912,8.839 L7.26759689,9.3008446 C7.17279718,9.31761982 7.08991515,9.37423617 7.04224444,9.45496689 C6.99511544,9.53569761 6.98698975,9.63320354 7.02003422,9.72074919 C7.46857228,10.882957 8.63054588,11.6635287 9.91277969,11.6635287 C11.6153825,11.6635287 13,10.3236085 13,8.67701631 C13,8.67329735 12.999932,8.66958588 12.9997874,8.66332744 C12.9997874,7.56874468 12.3827767,6.56275603 11.3887341,6.03853057 Z"/>
</svg>
