<svg xmlns="http://www.w3.org/2000/svg" xmlns:xlink="http://www.w3.org/1999/xlink" width="20" height="20" viewBox="0 0 20 20">
  <defs>
    <polygon id="sun-b" points="0 0 .5 0 .5 11 0 11"/>
  </defs>
  <g fill="#E7C01F" fill-rule="evenodd" filter="url(#sun-a)">
    <g transform="translate(4.5 4.5)">
      <g transform="translate(5.265)">
        <mask id="sun-c" fill="#E7C01F">
          <use xlink:href="#sun-b"/>
        </mask>
        <path fill="#E7C01F" d="M.25 2.32553207C.387603306 2.32553207.499586777 2.22053313.499586777 2.09064555L.499586777.235275401C.499586777.105387824.387603306 0 .25 0 .111983471 0 0 .105387824 0 .235275401L0 2.09064555C0 2.22053313.111983471 2.32553207.25 2.32553207M.250413223 8.92685427C.112396694 8.92685427.00041322314 9.03185321.00041322314 9.16135191L.00041322314 10.7892244C.00041322314 10.918723.112396694 11.023722.250413223 11.023722.388016529 11.023722.5 10.918723.5 10.7892244L.5 9.16135191C.5 9.03185321.388016529 8.92685427.250413223 8.92685427" mask="url(#sun-c)"/>
      </g>
      <path fill="#E7C01F" d="M8.07954986,7.76447713 C7.98758246,7.67347805 7.83934808,7.67308916 7.74738068,7.76486601 C7.65618937,7.85703175 7.65618937,8.0055858 7.74776872,8.09775154 L9.05743112,9.4098494 C9.1032208,9.45496005 9.16336826,9.47829315 9.22312767,9.47829315 C9.28327513,9.47829315 9.34342258,9.45496005 9.38921226,9.40907163 C9.48079162,9.31729477 9.48079162,9.16874072 9.38882421,9.07657498 L8.07954986,7.76447713"/>
      <path fill="#E7C01F" d="M1.21619138 1.55194266C1.26236911 1.59783108 1.32251657 1.6207753 1.38266403 1.6207753 1.44242344 1.6207753 1.5025709 1.59783108 1.54836057 1.55233154 1.63993993 1.46016581 1.63993993 1.31161175 1.54874862 1.21944602L.400514241.0687354168C.308934885-.0230414339.160312456-.022652549.0687331001.0683465319-.0228462557.160123383-.0228462557.309066323.068345052.400843173L1.21619138 1.55194266M9.22317625 3.73125398L7.37179868 3.73125398C7.24219061 3.73125398 7.13741762 3.8366418 7.13741762 3.96652938 7.13741762 4.09602807 7.24219061 4.20141589 7.37179868 4.20141589L9.22317625 4.20141589C9.35278432 4.20141589 9.45794536 4.09602807 9.45794536 3.96652938 9.45794536 3.8366418 9.35278432 3.73125398 9.22317625 3.73125398" transform="translate(1.542 1.546)"/>
      <path fill="#E7C01F" d="M2.09235545 5.51205543C2.09235545 5.38216786 1.98758246 5.27678003 1.85797439 5.27678003L.234381063 5.27678003C.10516104 5.27678003 0 5.38216786 0 5.51205543 0 5.64155413.10516104 5.74694195.234381063 5.74694195L1.85797439 5.74694195C1.98758246 5.74694195 2.09235545 5.64155413 2.09235545 5.51205543M7.91385332 3.32768861C7.97361273 3.32768861 8.03376019 3.3047444 8.07954986 3.25885597L9.38882421 1.94636923C9.48079162 1.85498126 9.48079162 1.70564944 9.38882421 1.61426147 9.29724486 1.52248462 9.14901048 1.52248462 9.05743112 1.61426147L7.74776872 2.92674821C7.65618937 3.01813618 7.65618937 3.16746801 7.74776872 3.25885597 7.7935584 3.3047444 7.85370586 3.32768861 7.91385332 3.32768861M2.75863407 7.92625327L1.61078774 9.07696387C1.51920838 9.16874072 1.51920838 9.31768366 1.61078774 9.40907163 1.65657742 9.45496005 1.71672487 9.47829315 1.77648428 9.47829315 1.83663174 9.47829315 1.89639115 9.45496005 1.94218083 9.40907163L3.09041521 8.25874991C3.18199457 8.16697306 3.18199457 8.01803012 3.09041521 7.92625327 2.99883586 7.8348653 2.85060147 7.8348653 2.75863407 7.92625327"/>
      <path fill="#E7C01F" d="M9.80209546,7.04309552 L8.0830423,6.32949162 C8.26154443,5.7947748 8.27706636,5.21766952 8.12766783,4.67556388 L9.80209546,3.98062646 C9.92200233,3.93084918 9.97865735,3.79318391 9.92937524,3.67340734 C9.87970508,3.552853 9.74117191,3.49724245 9.62281723,3.54585307 L7.96352348,4.23456834 C7.82887078,3.94640458 7.64648816,3.67496288 7.40900272,3.43735417 C7.22623205,3.25380047 7.02134265,3.10096868 6.80170741,2.97652549 L7.46177726,1.38054161 C7.51067132,1.26076504 7.4540163,1.12309977 7.33410943,1.07332249 C7.21536671,1.02471187 7.07722158,1.07993354 7.02755142,1.20048787 L6.37485448,2.78052747 C6.07217695,2.67086191 5.75087311,2.61058474 5.41948002,2.61058474 C5.41909197,2.61058474 5.41870392,2.61058474 5.41870392,2.61058474 C5.13853318,2.61058474 4.86495925,2.65141766 4.60419092,2.73036131 L3.97206054,1.20048787 C3.92239038,1.07993354 3.7838572,1.02471187 3.66550252,1.07332249 C3.54559565,1.12309977 3.48894063,1.26076504 3.53822274,1.38054161 L4.16880093,2.90574843 C3.89910749,3.03991374 3.6492045,3.21646751 3.43034536,3.43579863 C3.21032208,3.65590752 3.03414823,3.9071272 2.89988359,4.17818002 L1.37718277,3.54585307 C1.258052,3.49724245 1.12029492,3.552853 1.07062476,3.67340734 C1.02134265,3.79318391 1.07760962,3.93084918 1.19751649,3.98062646 L2.72448584,4.61450894 C2.64610012,4.87622852 2.60496702,5.15078131 2.60535506,5.43155625 C2.60535506,5.76327512 2.66550252,6.08527187 2.77454404,6.38860214 L1.19751649,7.04309552 C1.07760962,7.0928728 1.02134265,7.23053808 1.07062476,7.35070353 C1.10787738,7.44131372 1.19557625,7.4961465 1.28715561,7.4961465 C1.31781141,7.4961465 1.34769111,7.48992434 1.37718277,7.47786891 L2.97012029,6.81676448 C3.09429569,7.03609559 3.24641055,7.24181574 3.42956927,7.42459167 C3.66395033,7.65986707 3.93364377,7.84497631 4.22467986,7.98264159 L3.53822274,9.64318037 C3.48894063,9.76334582 3.54559565,9.90062222 3.66550252,9.95039949 C3.69460613,9.96284381 3.72526193,9.96867708 3.75514164,9.96867708 C3.84749709,9.96867708 3.93480792,9.91423319 3.97206054,9.82323411 L4.66472643,8.14713993 C4.90764455,8.21441703 5.16026387,8.25174998 5.41909197,8.25174998 C5.41909197,8.25174998 5.41909197,8.25174998 5.41948002,8.25174998 C5.72953046,8.25174998 6.03104385,8.19925051 6.31664726,8.10280704 L7.02755142,9.82323411 C7.06480404,9.91423319 7.15250291,9.96867708 7.24447031,9.96867708 C7.27473807,9.96867708 7.30500582,9.96284381 7.33410943,9.95039949 C7.4540163,9.90062222 7.51067132,9.76334582 7.46177726,9.64318037 L6.74854482,7.91847557 C6.98835856,7.78897688 7.21109818,7.62370077 7.40939076,7.42459167 C7.60962359,7.22431592 7.77221575,7.00031818 7.89910749,6.76232058 L9.62281723,7.47786891 C9.65230889,7.48992434 9.68218859,7.4961465 9.71245634,7.4961465 C9.80442375,7.4961465 9.89173458,7.44131372 9.92937524,7.35070353 C9.97865735,7.23053808 9.92200233,7.0928728 9.80209546,7.04309552"/>
    </g>
  </g>
</svg>
