<svg xmlns="http://www.w3.org/2000/svg" width="20" height="20" viewBox="0 0 20 20">
  <path fill-rule="evenodd" d="M3.15711499,12.7749521 L3.15494825,12.6305677 C3.60346387,12.4872897 3.92955856,12.0591153 3.92955856,11.5545997 C3.92955856,11.0484245 3.60075545,10.6191437 3.15007308,10.4769721 L3.15007308,10.2877788 C3.60075545,10.1456072 3.92955856,9.71632637 3.92955856,9.2101512 C3.92955856,8.70397603 3.60075545,8.27469524 3.15007308,8.13252363 L3.15007308,8.09877862 L9.80792999,8.09822542 L6.80536707,11.1651491 C6.67807097,11.2945971 6.67807097,11.504812 6.80536707,11.63426 L7.25334101,12.0917539 C7.38009542,12.221202 7.58593592,12.221202 7.71323202,12.0923071 C7.89036319,11.9103053 8.17908158,11.9103053 8.35567107,12.0923071 C8.44125738,12.1797122 8.48838402,12.2958835 8.48838402,12.4192464 C8.48838402,12.5437157 8.44125738,12.6598871 8.35567107,12.7472922 C8.34754579,12.7566966 8.3432123,12.7683137 8.3356287,12.777718 L3.15711499,12.7749521 Z M17.4045279,8.36597273 L16.9560123,7.90792569 C16.8346747,7.78234999 16.6180005,7.78234999 16.496663,7.90792569 C16.3195318,8.08826788 16.0313551,8.08937427 15.8542239,7.90847889 C15.7680959,7.81996738 15.7209693,7.70324284 15.7209693,7.57987993 C15.7209693,7.45541062 15.7680959,7.33923927 15.8542239,7.25183416 C15.9148927,7.18932291 15.9495606,7.10468378 15.9495606,7.01672548 C15.9495606,6.92876717 15.9148927,6.84468124 15.8542239,6.78216999 L15.3331224,6.25054777 C15.2069097,6.12109969 15.0010692,6.12109969 14.8732314,6.24999457 C14.6961003,6.43144315 14.4068402,6.43144315 14.2307924,6.24999457 C14.0536612,6.06909918 14.0542029,5.77479843 14.2313341,5.59334984 C14.2925445,5.5302854 14.3272124,5.44453988 14.326129,5.35547517 C14.3255873,5.26696367 14.2892944,5.18232454 14.2270006,5.12036649 L13.692357,4.59261664 C13.5634358,4.46704095 13.359762,4.46925373 13.2351744,4.59870181 L10.4568693,7.43549553 L2.82506176,7.43549553 C2.64522216,7.43549553 2.50002462,7.5843055 2.50002462,7.76741368 L2.50002462,8.41465405 C2.50002462,8.59776223 2.64522216,8.746019 2.82506176,8.746019 C3.07532048,8.746019 3.27953592,8.95457423 3.27953592,9.2101512 C3.27953592,9.46572817 3.07532048,9.6742834 2.82506176,9.6742834 C2.64522216,9.6742834 2.50002462,9.82309337 2.50002462,10.0062015 L2.50002462,10.7585493 C2.50002462,10.9422107 2.64522216,11.0904675 2.82506176,11.0904675 C3.07532048,11.0904675 3.27953592,11.2990227 3.27953592,11.5545997 C3.27953592,11.8101767 3.07532048,12.0187319 2.82506176,12.0187319 C2.73785039,12.0187319 2.65443082,12.0541365 2.59322035,12.1172009 C2.53200989,12.1813718 2.49896707,12.2671173 2.50002462,12.3556288 L2.51250921,13.1146149 C2.51575932,13.2960635 2.66038936,13.4410011 2.83806221,13.4410011 C2.8386039,13.4410011 2.83968727,13.4410011 2.84022895,13.4410011 L8.57451202,13.4410011 L8.87677255,13.749685 C8.99919348,13.8752607 9.21478433,13.8730479 9.33720526,13.749685 C9.42279157,13.6617267 9.53654553,13.6135986 9.65734141,13.6135986 C9.65788309,13.6135986 9.65788309,13.6135986 9.65788309,13.6135986 C9.77922065,13.6135986 9.89297462,13.6611735 9.97856093,13.7491318 C10.0646889,13.8370901 10.1118156,13.9538147 10.1118156,14.0771776 C10.1118156,14.2016469 10.0646889,14.3178182 9.97856093,14.4052233 C9.91735046,14.4682878 9.88322428,14.5540333 9.88322428,14.643098 C9.88430765,14.7321627 9.92005889,14.8168018 9.98289441,14.8793131 L10.517538,15.4070629 C10.5809152,15.469021 10.6621681,15.5 10.7434209,15.5 C10.8279238,15.5 10.9113434,15.4668082 10.9747206,15.4009778 L17.4045279,8.8345305 C17.531824,8.70563563 17.531824,8.4954208 17.4045279,8.36597273 L17.4045279,8.36597273 Z"/>
</svg>
