<svg xmlns="http://www.w3.org/2000/svg" width="20" height="20" viewBox="0 0 20 20">
  <path fill-rule="evenodd" d="M18.4311961,3.04817188 L18.42,6.518 L18.4212833,6.51855254 C18.4666709,6.51884084 18.5033434,6.55518758 18.5044443,6.60102861 L19.826091,6.60101408 C19.9220308,6.60101408 20,6.67975796 20,6.776651 L20,9.22005331 C20,9.31694635 19.9220308,9.39569023 19.826091,9.39569023 L18.3900379,9.39500272 C18.3644249,9.4618699 18.3139929,9.5325655 18.2229981,9.57691826 L12.592,12.217 L17.8394418,9.75668265 L17.5411879,10.9785302 C17.4910442,11.1655835 17.3585835,11.2077364 17.3585835,11.2077364 L17.3585835,11.2077364 L16.8660582,11.4398049 C16.8917553,11.7333996 16.7359012,12.0254666 16.4566916,12.1576394 C16.1769862,12.2890062 15.8544622,12.2216308 15.6477096,12.0116348 L4.86634664,17.0746545 C4.89652669,17.3714623 4.74031848,17.6686977 4.45792874,17.8023759 C4.17511549,17.9354345 3.84852688,17.8651257 3.64209815,17.6494627 L2.98007925,17.9592196 C2.85805312,18.0224489 2.74066456,18.0095689 2.62675418,17.9384359 L2.62675418,17.9384359 L1.56764852,17.3883996 L0.894417885,17.7045168 C0.894417885,17.7045168 0.723987089,17.7973117 0.561672045,17.6717313 C0.419646381,17.5645927 0.227476963,17.4153014 0.197042892,17.3889558 C0.137623992,17.3368502 0.112986887,17.2791827 0.112986887,17.2791827 C0.0774225016,17.2178562 0.0788635501,17.1370632 0.0788635501,17.1370632 L0.0788635501,17.1370632 L0.0840890123,14.3892236 L0.0831614978,13.6921499 C0.0370756192,13.6921499 -0.000314810632,13.6546807 1.99848382e-06,13.6078442 C1.99848382e-06,13.5729363 0.0210189498,13.5429683 0.0508476257,13.530166 L0.0834513461,13.5235384 L0.084,13.523 L0.0814803777,11.7278558 L18.4311961,3.04817188 Z M2.51881467,11.8621595 L1.97216079,11.8621595 L1.97216079,13.2947714 L2.51881467,13.2947714 L2.51881467,11.8621595 Z M1.64825533,11.8621595 L1.10160145,11.8621595 L1.10160145,13.2947714 L1.64825533,13.2947714 L1.64825533,11.8621595 Z M3.33169421,11.1834985 L3.3286508,12.9404531 L3.33,12.94 L3.33091162,12.938082 C3.33091162,12.8915383 3.36830205,12.854069 3.41438793,12.854069 L5.98,12.859 L5.98337132,11.1881821 L3.33169421,11.1834985 Z M6.26930666,10.1160651 L6.266,11.862 L6.27189809,11.8359375 C6.28457442,11.8056813 6.31424764,11.7844402 6.34881205,11.7844402 L8.917,11.789 L8.92098377,10.1207487 L6.26930666,10.1160651 Z M18.104653,2 C18.2805909,2 18.4214572,2.14109499 18.4287034,2.31702464 L18.4287034,2.31702464 L18.4310222,2.3176101 L18.4310222,2.33195378 L18.4304135,3.04498114 L0.081596317,11.7244309 L0.081596317,10.7590133 C0.081596317,10.6272856 0.159565508,10.5154634 0.269997707,10.4624796 L0.269997707,10.4624796 L0.270867252,10.4598451 L0.280432246,10.4557469 C0.281011943,10.4554541 0.281301791,10.4551614 0.281881487,10.4548687 L0.281881487,10.4548687 L17.9826269,2.02312553 C18.0217564,2.0093673 18.0620453,2 18.104653,2 Z M3.3315203,10.4344363 L3.33044786,11.0099399 L5.98209599,11.0149163 L5.98313944,10.4394126 L3.3315203,10.4344363 Z M9.19944103,8.71132097 L9.196,10.462 L9.20197448,10.435942 C9.21465082,10.4057269 9.24432403,10.3843212 9.27888844,10.3843212 L9.27917829,10.3843212 L11.847,10.389 L11.8509152,8.71629735 L9.19944103,8.71132097 Z M6.26907478,9.36732487 L6.2680893,9.94253579 L8.91979539,9.94721944 L8.92078088,9.37200852 L6.26907478,9.36732487 Z M19.652182,6.95199519 L18.419,6.951 L18.4154574,8.6805845 L18.413,9.044 L19.652182,9.04470912 L19.652182,6.95199519 Z M12.1350825,7.20479527 L12.131,8.956 L12.137558,8.92914643 C12.1502343,8.89889022 12.1799075,8.87764913 12.214472,8.87764913 L14.783,8.882 L14.7865567,7.20977165 L12.1350825,7.20479527 Z M9.19909321,7.9625515 L9.19802077,8.53776241 L11.8496689,8.54273879 L11.8507123,7.96752788 L9.19909321,7.9625515 Z M12.1346188,6.45631853 L12.1336333,7.03152945 L14.7853394,7.0362131 L14.7863248,6.46100218 L12.1346188,6.45631853 Z M16.5541676,4.84725014 L16.0075137,4.84725014 L16.0075137,6.27986197 L16.5541676,6.27986197 L16.5541676,4.84725014 Z M17.4246979,4.84725014 L16.878044,4.84725014 L16.878044,6.27986197 L17.4246979,6.27986197 L17.4246979,4.84725014 Z"/>
</svg>
