<svg xmlns="http://www.w3.org/2000/svg" width="20" height="20" viewBox="0 0 20 20">
  <path fill="#cf7027" d="M18.7414858,5.74364816 C18.5831774,5.65445208 18.3878181,5.65785003 18.2311939,5.753842 L15.3285928,7.54455943 L13.3067927,7.54455943 L13.3067927,5.00969187 C13.3067927,4.72851185 13.081119,4.5 12.8023952,4.5 L1.50523952,4.5 C1.22651572,4.5 1,4.72851185 1,5.00969187 L1,14.9903081 C1,15.2714881 1.22651572,15.5 1.50523952,15.5 L12.8023952,15.5 C13.081119,15.5 13.3067927,15.2714881 13.3067927,14.9903081 L13.3067927,12.5735192 L15.3445921,12.5735192 L18.2598241,14.1195845 C18.3339259,14.1586609 18.4147642,14.1773496 18.4947605,14.1773496 C18.5857036,14.1773496 18.6758046,14.153564 18.756643,14.1042938 C18.9082148,14.0125492 19,13.8468994 19,13.6685072 L19,6.18877906 C19,6.0044405 18.9014783,5.83454321 18.7414858,5.74364816"/>
</svg>
