<svg xmlns="http://www.w3.org/2000/svg" width="20" height="20" viewBox="0 0 20 20">
  <path fill-rule="evenodd" d="M9.67312041,7.72824025 C9.97539376,7.72824025 10.2539221,7.82361032 10.4754709,7.98334343 L10.5813431,8.06843002 L11.7223491,8.9962203 L12.5012933,8.22916562 C12.616253,8.11644724 12.8015795,8.11644724 12.9149028,8.23160717 C13.0127384,8.3296181 13.0261137,8.47875216 12.9555442,8.59085719 L12.9132664,8.64341584 L11.9530867,9.58911084 C11.8966297,9.64445271 11.8221718,9.6729375 11.7473047,9.6729375 C11.7055756,9.6729375 11.6638464,9.66425642 11.6250265,9.64653255 L11.5693422,9.61311944 L10.9781792,9.12236722 L10.9830885,11.1814106 L12.4440179,11.4723623 C12.5551593,11.4950823 12.6410155,11.5788412 12.6686777,11.6845476 L12.6780285,11.7502925 L12.7328491,13.830089 C12.7367065,13.9675136 12.6437802,14.0855054 12.515129,14.1189753 L12.448109,14.1283655 C12.3060897,14.1283655 12.1899193,14.036583 12.1570498,13.9106757 L12.1478228,13.8451453 L12.0987297,11.9964824 L11.3725606,11.8491754 C11.4895659,12.1218155 11.5546142,12.4209058 11.5546142,12.7350523 C11.5546142,13.9839069 10.5330682,15 9.27751168,15 C8.02154601,15 7,13.9839069 7,12.7350523 C7,11.8656304 7.49620488,11.111014 8.22062355,10.7317283 L8.36847073,10.6609528 L8.36847073,8.93192606 C8.36847073,8.26782354 8.95390619,7.72824025 9.67312041,7.72824025 Z M9.27219326,11.0605537 C8.33942397,11.0605537 7.58298081,11.812959 7.58298081,12.7407493 C7.58298081,13.6689465 8.33942397,14.4209449 9.27219326,14.4209449 C10.2049625,14.4209449 10.9614057,13.6689465 10.9614057,12.7407493 C10.9614057,11.812959 10.2049625,11.0605537 9.27219326,11.0605537 Z M9.67876004,5 C10.3582906,5 10.9089518,5.5477218 10.9089518,6.22362516 C10.9089518,6.89912159 10.3431536,7.44521569 9.7294896,7.44521569 C9.0241851,7.44521569 8.45756867,6.99230754 8.45756867,6.30989338 L7.98545649,6.26309694 C8.13150853,5.5428387 8.91168003,5 9.67876004,5 Z"/>
</svg>
